<?xml version="1.0" standalone="no"?>
<!DOCTYPE svg PUBLIC "-//W3C//DTD SVG 20010904//EN"
 "http://www.w3.org/TR/2001/REC-SVG-20010904/DTD/svg10.dtd">
<svg version="1.0" xmlns="http://www.w3.org/2000/svg"
 width="1280.000000pt" height="1013.000000pt" viewBox="0 0 1280.000000 1013.000000"
 preserveAspectRatio="xMidYMid meet">
<metadata>
Created by potrace 1.15, written by Peter Selinger 2001-2017
</metadata>
<g transform="translate(0.000000,1013.000000) scale(0.100000,-0.100000)"
fill="#000000" stroke="none">
<path d="M10020 10025 l0 -105 -267 -2 -268 -3 -3 -57 -3 -58 321 0 320 0 0
159 0 158 -37 7 c-66 10 -63 15 -63 -99z"/>
<path d="M2830 9685 l0 -115 245 0 245 0 0 115 0 115 -26 0 -25 0 2 -87 2 -88
-91 -3 -92 -3 0 86 c0 84 0 85 -25 85 -25 0 -25 -1 -25 -85 l0 -85 -80 0 -80
0 0 90 c0 89 0 90 -25 90 l-25 0 0 -115z"/>
<path d="M10020 9726 c-52 -13 -178 -42 -280 -65 -102 -24 -202 -47 -222 -52
l-38 -10 0 -72 0 -72 308 -69 c169 -38 313 -71 320 -74 9 -3 12 11 12 52 l0
55 -37 10 c-21 5 -57 12 -80 16 l-43 7 0 73 0 74 58 11 c112 21 102 13 102 80
0 33 -1 60 -2 59 -2 0 -46 -11 -98 -23z m-160 -199 l0 -54 -117 23 c-65 13
-125 24 -133 25 -13 0 -13 1 0 7 12 4 213 47 243 51 4 1 7 -23 7 -52z"/>
<path d="M4800 9617 l0 -35 83 -28 82 -27 -80 -27 c-79 -26 -80 -27 -83 -63
-2 -20 -1 -37 1 -37 2 0 48 19 103 41 77 32 117 43 179 48 l80 6 0 30 0 30
-80 5 c-63 4 -99 14 -170 44 -49 21 -96 40 -102 43 -9 4 -13 -6 -13 -30z"/>
<path d="M3270 9421 l0 -91 -90 0 -90 0 0 80 c0 79 0 80 -25 80 -25 0 -25 -1
-25 -80 l0 -80 -80 0 -80 0 0 85 c0 84 0 85 -25 85 l-25 0 0 -110 0 -110 245
0 246 0 -3 113 c-3 108 -4 112 -25 115 -22 3 -23 1 -23 -87z"/>
<path d="M4800 9265 l0 -116 28 3 c23 3 27 8 30 40 l3 37 152 3 152 3 0 30 0
30 -152 3 -152 3 -3 37 c-3 32 -7 37 -30 40 l-28 3 0 -116z"/>
<path d="M5662 9245 c-44 -19 -62 -66 -62 -158 0 -92 14 -133 51 -152 60 -32
126 -7 147 55 10 28 10 30 -16 30 -16 0 -34 -10 -48 -27 -25 -31 -49 -26 -64
12 -14 37 -12 145 3 175 16 31 49 32 62 3 7 -17 18 -23 41 -23 28 0 31 3 27
24 -11 57 -82 88 -141 61z"/>
<path d="M7194 9246 c-35 -16 -44 -32 -44 -85 0 -42 10 -53 83 -95 43 -25 48
-31 45 -59 -2 -26 -8 -33 -30 -35 -20 -2 -31 4 -44 22 -22 35 -64 36 -64 2 0
-35 53 -76 96 -76 67 0 103 33 104 95 0 52 -8 63 -72 100 -45 27 -53 36 -53
61 0 40 39 47 57 10 11 -26 50 -36 62 -17 13 20 -15 62 -49 76 -42 18 -51 18
-91 1z"/>
<path d="M5411 9213 c-10 -40 -59 -236 -65 -265 -3 -14 2 -18 25 -18 30 0 33
3 43 53 6 24 11 27 45 27 38 0 39 -1 46 -40 6 -37 9 -40 40 -40 l33 0 -33 133
c-18 72 -36 144 -39 160 -6 24 -11 27 -46 27 -37 0 -40 -2 -49 -37z m64 -100
c7 -53 7 -53 -20 -53 -24 0 -26 3 -21 23 3 12 9 42 13 66 7 52 18 38 28 -36z"/>
<path d="M5822 9228 c2 -19 10 -24 41 -26 l37 -3 0 -135 0 -134 30 0 30 0 0
135 0 135 35 0 c31 0 35 3 35 25 l0 25 -106 0 c-104 0 -105 0 -102 -22z"/>
<path d="M6062 9110 c3 -130 5 -141 26 -162 18 -18 34 -23 77 -23 43 0 59 5
77 23 21 21 23 32 26 162 l4 140 -31 0 -31 0 0 -121 c0 -131 -8 -159 -45 -159
-37 0 -45 28 -45 159 l0 121 -31 0 -31 0 4 -140z"/>
<path d="M6336 9100 c-20 -83 -36 -155 -36 -160 0 -6 13 -10 29 -10 26 0 30 4
36 40 7 39 8 40 46 40 34 0 39 -3 45 -27 10 -50 13 -53 44 -53 28 0 30 2 23
28 -4 15 -21 86 -38 157 l-30 130 -42 3 -41 3 -36 -151z m99 -17 c5 -20 1 -23
-24 -23 l-29 0 10 48 c15 74 20 81 29 37 5 -22 11 -50 14 -62z"/>
<path d="M6560 9090 l0 -160 30 0 c29 0 29 0 32 68 3 65 4 67 28 64 36 -4 43
-15 48 -77 4 -53 6 -55 33 -55 27 0 29 3 29 38 0 48 -18 112 -31 112 -6 0 -1
12 10 26 29 37 27 89 -4 119 -21 22 -33 25 -100 25 l-75 0 0 -160z m134 94
c17 -44 -5 -74 -53 -74 -18 0 -21 6 -21 45 0 44 0 45 34 45 22 0 36 -6 40 -16z"/>
<path d="M6810 9090 l0 -160 30 0 30 0 0 160 0 160 -30 0 -30 0 0 -160z"/>
<path d="M6930 9090 l0 -161 88 3 c82 3 87 4 90 26 3 21 0 22 -57 22 l-61 0 0
45 0 45 55 0 c52 0 55 1 55 25 0 24 -3 25 -55 25 l-55 0 0 40 0 40 55 0 c52 0
55 1 55 25 0 25 -1 25 -85 25 l-85 0 0 -160z"/>
<path d="M9480 9195 l0 -55 320 0 320 0 0 55 0 55 -320 0 -320 0 0 -55z"/>
<path d="M2830 9085 l0 -135 25 0 c24 0 25 3 25 55 l0 55 220 0 220 0 0 25 0
25 -220 0 -220 0 0 55 c0 52 -1 55 -25 55 l-25 0 0 -135z"/>
<path d="M4800 9085 l0 -35 183 2 182 3 0 30 0 30 -182 3 -183 2 0 -35z"/>
<path d="M10410 9102 c-21 -10 -45 -34 -60 -62 -23 -42 -25 -55 -25 -180 0
-117 3 -140 20 -169 32 -54 68 -75 128 -75 66 0 108 27 131 84 23 57 21 60
-29 60 -37 0 -45 -3 -45 -18 0 -27 -34 -54 -62 -50 -44 6 -59 58 -56 189 3 99
6 120 22 138 14 15 29 21 50 19 25 -2 33 -9 41 -35 8 -31 12 -33 52 -33 51 0
54 11 23 76 -33 67 -118 93 -190 56z"/>
<path d="M12093 9113 c-33 -6 -80 -57 -87 -95 -13 -72 24 -132 107 -174 66
-34 87 -57 87 -99 0 -72 -87 -84 -113 -15 -10 27 -16 30 -54 30 -48 0 -52 -9
-29 -63 18 -44 47 -67 95 -78 97 -22 180 31 189 119 8 86 -25 129 -145 190
-23 12 -45 31 -48 43 -24 74 68 112 94 39 9 -27 15 -30 50 -30 36 0 41 3 41
23 0 35 -38 87 -75 103 -33 14 -67 16 -112 7z"/>
<path d="M10680 8865 l0 -245 124 0 124 0 4 35 c2 20 2 38 -1 40 -2 3 -40 5
-83 5 l-78 0 0 205 0 205 -45 0 -45 0 0 -245z"/>
<path d="M11085 9098 c-9 -27 -105 -449 -105 -463 0 -11 11 -15 40 -15 43 0
41 -3 58 85 l8 39 54 -3 c30 -1 58 -7 61 -13 4 -6 10 -32 13 -59 l7 -49 44 0
c29 0 45 4 45 13 0 6 -24 116 -54 242 l-53 230 -57 3 c-39 2 -58 -1 -61 -10z
m90 -235 l6 -43 -41 0 c-37 0 -40 2 -35 23 5 24 34 164 36 175 1 10 26 -103
34 -155z"/>
<path d="M11370 8865 l0 -245 40 0 40 0 0 245 0 245 -40 0 -40 0 0 -245z"/>
<path d="M11550 8865 l0 -245 41 0 41 0 -3 194 c-2 107 -1 187 2 178 3 -9 19
-97 34 -194 l29 -178 37 0 c45 0 40 -11 74 180 41 233 43 234 44 18 l1 -198
40 0 40 0 0 245 0 245 -64 0 -63 0 -27 -137 c-15 -76 -30 -151 -33 -168 -4
-22 -14 15 -34 135 -16 91 -29 166 -29 168 0 1 -29 2 -65 2 l-65 0 0 -245z"/>
<path d="M9560 9038 c-80 -41 -112 -145 -71 -233 23 -50 43 -68 106 -97 41
-18 73 -23 181 -26 197 -6 277 17 331 97 44 65 25 190 -36 238 -27 22 -82 43
-112 43 -28 0 -29 -2 -29 -50 0 -39 4 -52 18 -56 76 -25 100 -52 86 -96 -21
-69 -351 -91 -433 -30 -51 38 -36 104 26 119 37 9 38 10 41 61 l3 52 -33 0
c-19 0 -54 -10 -78 -22z"/>
<path d="M5108 8958 l-3 -63 -152 -3 -153 -3 0 -29 0 -30 185 0 186 0 -3 93
c-3 92 -3 92 -30 95 -27 3 -27 2 -30 -60z"/>
<path d="M2240 8974 l0 -36 140 4 c76 2 134 0 127 -3 -7 -4 -69 -28 -139 -54
l-128 -47 0 -44 0 -44 215 0 215 0 0 35 0 35 -152 1 -153 0 150 53 150 54 3
41 3 41 -215 0 -216 0 0 -36z"/>
<path d="M2830 8874 l0 -25 194 3 c107 2 192 1 190 -2 -3 -2 -89 -38 -192 -80
-186 -74 -187 -75 -190 -107 l-3 -33 245 0 246 0 0 25 0 25 -197 1 -198 0 195
77 c194 77 195 78 198 110 l3 32 -245 0 -246 0 0 -26z"/>
<path d="M4800 8730 l0 -30 185 0 185 0 0 30 0 30 -185 0 -185 0 0 -30z"/>
<path d="M5360 8722 c0 -28 4 -31 115 -73 63 -24 115 -46 115 -49 0 -3 -52
-25 -115 -49 -110 -41 -115 -45 -115 -72 0 -16 3 -29 6 -29 3 0 70 27 149 60
141 59 145 60 239 60 96 0 96 0 96 25 0 25 -1 25 -91 25 -89 0 -93 1 -232 61
-78 34 -148 63 -154 66 -9 3 -13 -5 -13 -25z"/>
<path d="M2338 8677 c-54 -16 -74 -30 -94 -68 -33 -64 -6 -141 62 -175 31 -15
60 -19 149 -19 97 0 115 3 151 24 49 27 64 55 64 115 0 49 -25 87 -72 112 -42
22 -199 28 -260 11z m251 -91 c28 -26 26 -52 -5 -73 -39 -25 -196 -31 -247 -9
-35 14 -38 19 -35 48 4 46 45 59 170 55 78 -2 101 -6 117 -21z"/>
<path d="M4990 8630 c-19 -19 -22 -19 -43 -5 -34 24 -94 19 -122 -10 -22 -22
-25 -32 -25 -105 l0 -80 183 2 182 3 3 35 c11 111 -32 180 -112 180 -33 0 -52
-6 -66 -20z m94 -50 c21 -8 26 -16 26 -45 l0 -35 -55 0 c-53 0 -55 1 -55 28 0
31 9 47 30 55 22 8 26 8 54 -3z m-156 -12 c7 -7 12 -25 12 -40 0 -27 -2 -28
-45 -28 -43 0 -45 1 -45 28 0 33 16 52 45 52 12 0 26 -5 33 -12z"/>
<path d="M9586 8600 c-41 -13 -84 -58 -96 -99 -5 -20 -10 -87 -10 -148 l0
-113 320 0 320 0 0 55 0 55 -135 0 -135 0 0 48 c0 75 17 85 153 92 l112 5 3
55 3 55 -123 -6 c-126 -5 -156 -14 -181 -50 l-15 -20 -15 21 c-34 49 -126 72
-201 50z m145 -126 c14 -13 19 -31 19 -71 l0 -53 -90 0 -90 0 0 40 c0 52 17
87 49 99 34 14 89 6 112 -15z"/>
<path d="M3060 8511 l-225 -57 -3 -36 c-3 -30 0 -36 20 -40 13 -3 119 -28 236
-57 117 -28 217 -51 222 -51 6 0 10 11 10 24 0 22 -7 26 -75 42 l-76 18 3 65
3 66 70 15 c64 14 70 18 73 43 3 21 -1 27 -15 26 -10 0 -119 -27 -243 -58z
m60 -91 c0 -31 -4 -50 -12 -50 -28 0 -219 45 -208 48 16 6 201 50 213 51 4 1
7 -21 7 -49z"/>
<path d="M10393 8425 c-49 -21 -63 -59 -63 -170 l0 -95 260 0 260 0 0 30 0 30
-120 0 -120 0 0 55 c0 77 21 95 111 95 107 0 129 7 129 41 l0 29 -82 -5 c-126
-9 -145 -14 -166 -40 -16 -20 -21 -22 -26 -10 -17 46 -118 69 -183 40z m126
-60 c31 -16 41 -39 41 -102 l0 -43 -96 0 -96 0 4 57 c4 46 10 61 32 80 31 26
74 30 115 8z"/>
<path d="M5360 8274 c0 -135 0 -135 23 -132 19 3 22 10 25 56 l3 52 220 0 219
0 0 25 0 25 -222 2 -222 3 3 53 c2 50 1 52 -23 52 l-26 0 0 -136z"/>
<path d="M4973 8357 l-173 -42 0 -42 c0 -31 4 -43 18 -47 36 -11 324 -76 338
-76 9 0 14 10 14 29 0 25 -5 30 -32 36 -69 14 -69 14 -66 58 3 39 5 41 48 51
41 10 45 14 45 40 0 16 -4 30 -10 32 -5 1 -88 -17 -182 -39z m47 -81 c0 -14
-3 -27 -7 -29 -11 -6 -133 15 -133 23 0 4 24 12 53 17 83 16 87 16 87 -11z"/>
<path d="M2240 8310 l0 -40 213 2 212 3 3 38 3 37 -215 0 -216 0 0 -40z"/>
<path d="M8750 8282 l0 -51 115 -38 c63 -20 115 -40 115 -43 0 -3 -51 -21
-113 -40 l-112 -36 -3 -52 c-2 -29 -1 -52 3 -52 3 0 78 29 167 65 l162 65 104
0 103 0 -3 48 -3 47 -115 5 c-113 5 -118 6 -255 64 -77 32 -146 60 -152 63
-10 4 -13 -9 -13 -45z"/>
<path d="M2240 8100 l0 -130 30 0 c29 0 30 2 30 45 l0 45 185 0 185 0 0 40 0
40 -185 0 -185 0 0 45 c0 43 -1 45 -30 45 l-30 0 0 -130z"/>
<path d="M2914 8209 c-16 -5 -41 -20 -55 -35 -21 -23 -24 -36 -27 -120 l-4
-94 246 0 246 0 0 30 0 30 -110 0 -110 0 0 48 c0 70 17 82 129 89 90 6 91 6
91 32 l0 26 -100 -6 c-83 -5 -104 -10 -123 -27 l-22 -21 -28 25 c-15 13 -39
24 -52 24 -13 0 -29 2 -37 4 -7 2 -27 0 -44 -5z m111 -74 c19 -18 25 -35 25
-70 l0 -45 -85 0 -85 0 0 50 c0 64 23 90 80 90 30 0 47 -7 65 -25z"/>
<path d="M10020 8056 l0 -116 -90 0 -89 0 -3 103 -3 102 -47 3 -47 3 -3 -103
-3 -103 -77 -3 -78 -3 0 106 0 105 -50 0 -50 0 0 -160 0 -160 320 0 320 0 0
165 0 165 -27 0 c-16 0 -38 3 -50 6 -23 6 -23 6 -23 -110z"/>
<path d="M5010 8105 c-14 -7 -41 -40 -60 -72 -27 -44 -42 -59 -62 -61 -39 -5
-56 30 -28 58 11 11 25 20 30 20 6 0 10 14 10 30 0 19 -5 30 -14 30 -84 0
-125 -112 -65 -176 54 -57 125 -37 178 51 30 50 41 61 67 63 19 2 36 -3 43
-12 20 -23 5 -65 -24 -72 -19 -5 -25 -13 -25 -33 0 -37 6 -41 41 -29 61 21 87
97 57 163 -22 49 -96 69 -148 40z"/>
<path d="M5411 8086 c-39 -22 -50 -54 -51 -148 l0 -88 245 0 245 0 0 25 c0 24
0 24 -112 27 l-113 3 2 48 c2 70 21 87 98 87 98 0 125 8 125 37 l0 25 -100 -4
c-88 -3 -102 -6 -126 -28 -19 -17 -28 -21 -31 -12 -14 37 -132 56 -182 28z
m147 -60 c11 -10 16 -34 17 -68 l0 -53 -85 0 -85 0 -3 36 c-4 47 12 87 40 99
31 13 97 5 116 -14z"/>
<path d="M10800 7991 l0 -101 -100 0 -100 0 0 90 c0 89 0 90 -25 90 -25 0 -25
-1 -25 -90 l0 -90 -85 0 -85 0 0 95 c0 95 0 95 -25 95 l-25 0 0 -125 0 -125
260 0 261 0 -3 128 c-3 123 -4 127 -25 130 -23 3 -23 1 -23 -97z"/>
<path d="M2321 7940 c-74 -18 -109 -97 -77 -173 12 -29 26 -43 63 -59 100 -44
280 -32 335 22 24 25 28 36 28 85 0 51 -3 60 -34 91 -24 24 -43 34 -65 34 -28
0 -31 -3 -31 -32 0 -27 6 -36 33 -48 42 -20 47 -53 11 -76 -35 -24 -183 -31
-239 -12 -35 11 -40 17 -43 46 -3 29 0 35 27 45 27 10 31 16 31 49 0 21 -1 38
-2 37 -2 -1 -18 -5 -37 -9z"/>
<path d="M8750 7780 l0 -160 40 0 40 0 0 55 0 55 230 0 230 0 0 45 0 45 -227
2 -228 3 -3 58 -3 57 -39 0 -40 0 0 -160z"/>
<path d="M3072 7847 l-243 -60 3 -36 3 -35 215 -52 c118 -29 228 -55 243 -59
27 -7 28 -6 25 21 -3 27 -8 30 -73 45 l-70 16 -3 65 -3 66 65 13 c81 16 88 20
84 51 l-3 24 -243 -59z m48 -97 c0 -27 -3 -50 -7 -50 -5 0 -45 9 -91 20 -46
11 -92 20 -103 20 -46 0 -12 17 74 37 134 30 127 31 127 -27z"/>
<path d="M4800 7815 l0 -35 183 2 182 3 0 30 0 30 -182 3 -183 2 0 -35z"/>
<path d="M400 7670 l0 -160 30 0 30 0 0 65 0 65 39 0 c61 0 96 35 96 95 0 39
-5 51 -28 71 -24 20 -39 24 -98 24 l-69 0 0 -160z m103 111 c52 -20 42 -91
-13 -91 -29 0 -30 1 -30 50 0 53 3 56 43 41z"/>
<path d="M640 7670 l0 -160 30 0 30 0 0 70 c0 61 2 70 18 70 36 0 51 -23 54
-80 3 -53 4 -55 33 -58 l30 -3 -3 63 c-2 38 -10 70 -19 80 -14 15 -14 19 1 33
38 39 27 112 -20 134 -14 6 -54 11 -89 11 l-65 0 0 -160z m128 93 c6 -9 12
-20 12 -25 0 -16 -40 -48 -60 -48 -17 0 -20 7 -20 51 0 51 0 51 28 45 15 -4
33 -14 40 -23z"/>
<path d="M880 7670 l0 -160 90 0 c89 0 90 0 90 25 0 24 -3 25 -60 25 l-60 0 0
45 0 45 55 0 c52 0 55 1 55 24 0 23 -4 25 -52 28 l-53 3 -3 38 -3 37 60 0 c58
0 61 1 61 25 0 25 -1 25 -90 25 l-90 0 0 -160z"/>
<path d="M1100 7671 l0 -161 30 0 30 0 1 118 1 117 18 -105 c11 -58 19 -111
19 -117 1 -8 14 -13 30 -13 32 0 28 -12 65 175 l14 70 1 -122 1 -123 30 0 30
0 0 160 0 160 -44 0 c-51 0 -47 7 -72 -125 -10 -49 -19 -84 -21 -78 -2 5 -12
53 -21 104 l-17 94 -48 3 -47 3 0 -160z"/>
<path d="M1430 7670 l0 -160 30 0 30 0 0 160 0 160 -30 0 -30 0 0 -160z"/>
<path d="M1550 7696 c0 -74 3 -142 6 -151 15 -38 102 -58 147 -33 42 22 46 37
47 181 l0 137 -30 0 -29 0 -3 -131 c-3 -113 -6 -133 -20 -143 -13 -8 -23 -8
-35 0 -15 10 -18 30 -21 143 l-3 131 -29 0 -30 0 0 -134z"/>
<path d="M1810 7671 l0 -161 30 0 30 0 1 113 1 112 20 -112 c21 -112 21 -113
49 -113 25 0 28 4 38 53 6 28 17 84 25 122 l14 70 1 -122 1 -123 30 0 30 0 0
160 0 160 -45 0 c-38 0 -45 -3 -50 -22 -3 -13 -13 -61 -24 -108 -20 -94 -17
-99 -44 55 l-12 70 -48 3 -47 3 0 -160z"/>
<path d="M5807 7784 c-4 -4 -7 -45 -7 -91 l0 -83 -95 0 -95 0 0 80 c0 73 -2
80 -20 80 -18 0 -20 -7 -20 -80 l0 -80 -80 0 -79 0 -3 83 c-3 76 -5 82 -25 85
-23 3 -23 2 -23 -113 l0 -116 245 1 246 1 -3 117 c-2 96 -6 117 -18 120 -9 1
-19 0 -23 -4z"/>
<path d="M10691 7701 l-154 -79 -91 67 c-123 91 -116 88 -116 49 0 -31 8 -39
120 -118 106 -74 138 -103 113 -99 -5 1 -59 1 -120 0 l-113 -1 0 -25 0 -25
260 0 260 0 0 25 c0 25 -1 25 -91 25 -83 0 -94 2 -130 28 -21 15 -39 29 -39
32 0 3 59 35 130 70 127 63 130 65 130 97 0 18 -1 33 -2 33 -2 -1 -72 -36
-157 -79z"/>
<path d="M4890 7723 c-70 -22 -90 -56 -90 -148 l0 -65 186 0 187 0 -6 65 c-8
85 -27 119 -77 139 -38 15 -164 21 -200 9z m198 -79 c14 -10 22 -25 22 -45 l0
-30 -127 3 c-123 3 -128 4 -131 25 -2 12 6 31 17 42 18 18 33 21 109 21 63 0
94 -4 110 -16z"/>
<path d="M9480 7641 c0 -67 3 -80 18 -85 9 -2 105 -21 212 -41 107 -20 199
-37 204 -39 5 -1 -69 -15 -165 -30 -96 -15 -195 -32 -221 -38 l-48 -10 0 -84
0 -84 320 0 320 0 0 50 0 50 -262 2 -263 3 245 38 c135 21 253 41 263 43 13 4
17 16 17 54 0 56 28 46 -250 95 -304 53 -304 53 -12 54 l262 1 0 50 0 50 -320
0 -320 0 0 -79z"/>
<path d="M2240 7530 l0 -110 215 0 216 0 -3 108 -3 107 -32 3 -33 3 0 -75 0
-76 -60 0 -59 0 -3 68 -3 67 -32 3 -33 3 0 -71 0 -71 -52 3 -53 3 -3 73 -3 72
-29 0 -30 0 0 -110z"/>
<path d="M8750 7520 l0 -50 271 0 270 0 -3 48 -3 47 -267 3 -268 2 0 -50z"/>
<path d="M2830 7525 l0 -25 199 0 c185 0 200 -1 225 -21 20 -16 26 -29 26 -59
0 -30 -6 -43 -26 -59 -25 -20 -40 -21 -226 -21 l-199 0 3 -27 3 -28 200 1
c128 0 210 4 227 12 60 25 87 126 53 192 -28 55 -53 60 -280 60 l-205 0 0 -25z"/>
<path d="M5424 7474 c-49 -24 -64 -60 -64 -158 l0 -86 245 0 245 0 0 30 0 30
-104 0 -103 0 -6 60 c-3 34 -13 72 -22 86 -32 50 -128 69 -191 38z m143 -66
c18 -17 23 -32 23 -70 l0 -48 -96 0 -97 0 5 52 c7 65 31 88 96 88 33 0 52 -6
69 -22z"/>
<path d="M9205 7333 l0 -88 -227 -3 -228 -2 0 -45 0 -45 270 0 271 0 -3 133
-3 132 -40 3 -40 3 0 -88z"/>
<path d="M10473 7370 c-105 -22 -153 -69 -153 -150 0 -59 28 -103 82 -132 36
-19 63 -23 163 -26 131 -4 182 5 236 41 98 65 63 222 -56 256 -54 16 -220 22
-272 11z m259 -71 c41 -10 78 -50 78 -83 0 -64 -79 -96 -229 -96 -167 1 -238
48 -205 135 21 54 219 78 356 44z"/>
<path d="M2240 7240 l0 -130 30 0 c29 0 30 2 30 45 l0 45 183 2 182 3 3 37 3
38 -183 2 -183 3 -3 43 c-3 39 -5 42 -33 42 l-29 0 0 -130z"/>
<path d="M6060 7150 l0 -211 38 3 37 3 0 205 0 205 -37 3 -38 3 0 -211z"/>
<path d="M6217 7353 c-4 -3 -7 -98 -7 -210 l0 -203 35 0 34 0 3 141 3 140 51
-138 50 -138 42 -3 42 -3 0 211 0 211 -32 -3 -33 -3 0 -137 c0 -75 -3 -134 -6
-130 -3 4 -23 54 -44 112 -56 155 -60 160 -99 160 -18 0 -36 -3 -39 -7z"/>
<path d="M6550 7357 c-3 -3 -4 -98 -2 -212 l3 -207 84 3 c77 4 86 6 114 33 41
39 55 85 55 181 1 89 -20 145 -64 177 -24 18 -178 38 -190 25z m163 -107 c14
-28 17 -52 14 -113 -4 -92 -26 -130 -75 -135 l-32 -3 0 146 0 146 38 -3 c31
-2 40 -9 55 -38z"/>
<path d="M6870 7150 l0 -211 108 3 107 3 3 28 3 27 -75 0 -76 0 0 60 0 59 68
3 67 3 3 33 3 32 -70 0 -71 0 0 50 0 50 70 0 70 0 0 35 0 35 -105 0 -105 0 0
-210z"/>
<path d="M7140 7150 l0 -210 35 0 36 0 -3 160 c-2 87 0 156 3 152 3 -4 16 -76
29 -160 l24 -153 35 3 36 3 32 165 31 165 1 -167 1 -168 35 0 35 0 0 210 0
210 -54 0 -54 0 -10 -47 c-6 -27 -18 -90 -28 -140 -10 -51 -19 -91 -21 -90 -1
2 -12 57 -23 123 -29 166 -22 154 -86 154 l-54 0 0 -210z"/>
<path d="M7544 7347 c-2 -7 -3 -100 -2 -207 l3 -195 33 -3 32 -3 1 148 c1 168
-4 170 69 -29 l42 -118 44 0 44 0 -2 208 -3 207 -32 3 -33 3 -1 -143 0 -143
-18 45 c-10 25 -35 89 -55 143 l-38 97 -39 0 c-23 0 -42 -5 -45 -13z"/>
<path d="M7880 7151 l0 -211 35 0 35 0 0 200 c0 110 1 203 3 208 1 4 -15 8
-35 10 l-38 3 0 -210z"/>
<path d="M8000 7325 c0 -35 0 -35 45 -35 l45 0 0 -175 0 -175 35 0 35 0 0 175
0 175 45 0 c45 0 45 0 45 35 l0 35 -125 0 -125 0 0 -35z"/>
<path d="M8280 7353 c0 -4 25 -67 55 -139 49 -118 55 -140 55 -203 l0 -71 35
0 35 0 0 75 c0 69 5 87 55 206 30 72 55 132 55 135 0 10 -69 3 -77 -8 -6 -7
-23 -51 -38 -98 -16 -47 -30 -78 -33 -70 -3 8 -18 52 -34 98 l-30 82 -39 0
c-21 0 -39 -3 -39 -7z"/>
<path d="M1750 7267 l0 -43 105 -18 c58 -11 103 -21 100 -24 -3 -3 -49 -13
-103 -21 l-97 -16 -3 -48 -3 -47 165 0 166 0 0 30 0 30 -117 1 -118 1 70 13
c39 7 91 16 118 19 43 7 47 9 47 35 l0 28 -127 22 c-71 12 -130 24 -132 27 -2
2 55 4 127 4 l132 0 0 25 0 25 -165 0 -165 0 0 -43z"/>
<path d="M4773 7290 c-24 -14 -36 -32 -47 -71 -27 -91 -15 -213 25 -256 48
-50 148 -33 174 31 21 49 19 56 -14 56 -23 0 -33 -7 -43 -27 -16 -33 -49 -41
-69 -17 -20 24 -20 204 0 228 21 25 65 17 69 -11 3 -19 10 -23 38 -23 38 0 41
8 19 55 -27 55 -93 71 -152 35z"/>
<path d="M3520 7120 l0 -180 35 0 35 0 0 80 0 80 59 0 c57 0 58 1 53 25 -4 23
-9 25 -58 25 l-54 0 0 50 0 50 60 0 c57 0 60 1 60 25 0 25 0 25 -95 25 l-95 0
0 -180z"/>
<path d="M3750 7120 l0 -180 35 0 35 0 0 180 0 180 -35 0 -35 0 0 -180z"/>
<path d="M3880 7121 l0 -181 30 0 29 0 3 128 3 127 46 -125 45 -125 37 -3 37
-3 0 180 0 181 -30 0 -30 0 -1 -117 0 -118 -43 115 -44 115 -41 3 -41 3 0
-180z"/>
<path d="M4226 7283 c-10 -34 -76 -323 -76 -333 0 -6 13 -10 30 -10 24 0 31 5
36 28 14 62 13 62 59 62 l43 0 6 -45 c7 -43 9 -45 42 -45 19 0 34 2 34 4 0 2
-18 80 -40 173 -22 92 -40 171 -40 176 0 4 -20 7 -44 7 -34 0 -46 -4 -50 -17z
m74 -180 c0 -8 -13 -13 -31 -13 -24 0 -29 4 -25 18 2 9 7 33 11 52 14 75 18
77 31 15 7 -33 13 -66 14 -72z"/>
<path d="M4430 7121 l0 -181 30 0 29 0 3 128 3 127 46 -125 46 -125 37 -3 36
-3 0 180 0 181 -30 0 -30 0 0 -117 -1 -118 -43 115 -43 115 -42 3 -41 3 0
-180z"/>
<path d="M4980 7120 l0 -180 94 0 c88 0 94 1 99 22 9 33 1 38 -64 38 l-59 0 0
50 0 50 54 0 c49 0 54 2 58 25 7 33 3 35 -59 35 l-53 0 0 45 0 45 60 0 c57 0
60 1 60 25 0 25 0 25 -95 25 l-95 0 0 -180z"/>
<path d="M2891 7187 c-41 -21 -63 -59 -63 -112 0 -84 54 -128 178 -146 77 -11
208 2 253 26 73 37 93 117 45 174 -25 30 -25 31 -5 31 14 0 21 6 21 20 0 19
-7 20 -135 20 l-136 0 3 -67 c3 -62 5 -68 26 -71 20 -3 22 1 22 42 l0 46 48
-1 c99 -1 145 -37 128 -103 -11 -45 -62 -60 -196 -61 -95 0 -122 3 -155 20
-72 36 -71 118 3 139 24 7 32 14 32 32 0 28 -29 32 -69 11z"/>
<path d="M5445 7133 c-115 -41 -129 -186 -22 -236 82 -39 271 -41 359 -4 68
29 97 111 63 177 -28 55 -84 74 -225 77 -99 3 -135 -1 -175 -14z m259 -43 c68
-11 106 -40 106 -80 0 -62 -92 -96 -240 -88 -133 8 -184 42 -166 111 13 55
153 81 300 57z"/>
<path d="M9482 7038 l3 -83 190 -37 c105 -20 201 -37 214 -38 55 0 2 -13 -191
-46 -111 -19 -206 -34 -210 -34 -5 0 -8 -38 -8 -85 l0 -85 320 0 320 0 0 50 0
51 -264 -3 c-146 -2 -259 0 -253 3 7 3 126 23 264 45 l253 39 0 53 c0 28 -2
52 -4 52 -9 0 -521 92 -523 94 -1 1 117 0 262 -2 l265 -5 0 57 0 56 -320 0
-321 0 3 -82z"/>
<path d="M2324 7079 c-92 -27 -124 -148 -56 -211 39 -36 83 -48 181 -48 105 0
156 13 193 50 24 24 28 37 28 82 0 102 -56 138 -215 137 -55 0 -114 -5 -131
-10z m207 -69 c64 -12 84 -29 75 -63 -9 -36 -53 -50 -161 -49 -107 0 -145 15
-145 56 0 31 22 48 73 57 64 10 99 10 158 -1z"/>
<path d="M8750 7010 l0 -50 271 0 270 0 -3 48 -3 47 -267 3 -268 2 0 -50z"/>
<path d="M1801 6999 c-40 -16 -50 -39 -51 -116 l0 -73 165 0 165 0 0 30 0 30
-71 0 -70 0 3 33 c3 30 5 32 48 35 78 4 90 10 90 40 l0 27 -70 -5 c-38 -3 -75
-11 -81 -17 -10 -10 -16 -10 -29 2 -22 20 -70 27 -99 14z m70 -59 c12 -7 19
-21 19 -40 0 -29 -2 -30 -45 -30 -43 0 -45 1 -45 28 0 46 29 64 71 42z"/>
<path d="M10364 6946 l-34 -34 0 -106 0 -106 260 0 260 0 0 30 0 30 -120 0
-120 0 0 54 c0 87 16 99 139 104 l101 4 0 29 0 29 -79 0 c-102 0 -136 -7 -163
-35 l-22 -23 -34 29 c-28 25 -41 29 -93 29 -56 0 -64 -3 -95 -34z m171 -51
c21 -20 25 -34 25 -80 l0 -56 -92 3 -93 3 1 59 c2 74 23 96 91 96 33 0 50 -6
68 -25z"/>
<path d="M9082 6890 c-19 -4 -46 -19 -61 -34 l-27 -26 -22 23 c-19 18 -34 22
-87 22 -60 0 -67 -3 -97 -33 -33 -32 -33 -33 -36 -147 l-4 -115 272 0 272 0
-4 109 c-3 91 -7 115 -24 137 -43 59 -110 82 -182 64z m108 -110 c14 -14 20
-33 20 -65 l0 -45 -85 0 -85 0 0 42 c0 58 29 88 87 88 30 0 49 -6 63 -20z
m-246 -6 c10 -9 16 -33 16 -60 l0 -44 -65 0 -65 0 0 44 c0 54 19 76 65 76 18
0 41 -7 49 -16z"/>
<path d="M5424 6791 c-49 -21 -64 -58 -64 -152 l0 -89 245 0 245 0 0 25 c0 24
0 24 -112 27 l-113 3 2 50 c2 70 23 85 118 85 89 0 105 5 105 36 0 23 -3 24
-57 23 -92 -1 -155 -14 -173 -37 l-17 -20 -26 25 c-20 20 -38 27 -79 30 -29 1
-63 -1 -74 -6z m97 -51 c41 -12 59 -41 59 -100 l0 -40 -90 0 -90 0 0 38 c0 60
11 83 44 98 38 16 33 16 77 4z"/>
<path d="M7544 6781 c-29 -13 -54 -50 -54 -81 0 -35 24 -67 70 -90 21 -11 45
-29 53 -41 15 -21 12 -54 -5 -65 -17 -11 -57 6 -63 26 -4 14 -15 20 -36 20
-34 0 -34 0 -15 -45 11 -26 23 -36 51 -44 75 -20 136 16 138 82 1 47 -25 83
-79 110 -62 30 -75 87 -19 87 15 0 26 -7 30 -20 4 -14 15 -20 36 -20 27 0 30
3 24 23 -16 50 -80 79 -131 58z"/>
<path d="M8430 6777 c-61 -31 -62 -115 -1 -152 18 -11 47 -32 64 -46 28 -24
30 -29 19 -53 -15 -33 -46 -34 -68 -1 -22 33 -64 35 -64 2 0 -38 43 -70 92
-70 59 0 85 16 99 62 15 49 -2 86 -51 118 -71 45 -83 58 -76 81 10 29 56 31
63 2 4 -14 14 -20 34 -20 38 0 38 23 0 61 -32 32 -69 37 -111 16z"/>
<path d="M6420 6700 l0 -80 -181 0 -180 0 3 -27 3 -28 198 -3 197 -2 0 110 c0
103 -1 110 -20 110 -18 0 -20 -7 -20 -80z"/>
<path d="M6676 6763 c-12 -42 -66 -276 -66 -289 0 -18 49 -19 54 -1 3 6 7 24
10 40 6 24 11 27 45 27 38 0 39 -1 46 -40 6 -36 10 -40 36 -40 16 0 29 3 29 8
0 4 -16 76 -36 160 l-36 152 -38 0 c-28 0 -40 -5 -44 -17z m59 -120 c7 -53 7
-53 -20 -53 -24 0 -26 3 -21 23 3 12 9 42 13 66 7 52 18 38 28 -36z"/>
<path d="M6860 6620 l0 -160 64 0 c54 0 69 4 95 25 62 53 66 220 6 273 -22 18
-38 22 -96 22 l-69 0 0 -160z m138 64 c16 -47 8 -137 -14 -159 -9 -8 -26 -15
-40 -15 -24 0 -24 0 -24 108 0 60 3 111 6 114 3 3 17 3 32 -1 20 -5 31 -18 40
-47z"/>
<path d="M7130 6645 l0 -135 -25 -6 c-16 -4 -25 -13 -25 -25 0 -15 7 -19 38
-19 66 0 72 15 72 178 l0 142 -30 0 -30 0 0 -135z"/>
<path d="M7241 6663 c0 -150 11 -184 63 -201 28 -9 48 -9 78 -2 57 16 68 49
68 200 l0 120 -30 0 -30 0 0 -124 c0 -100 -3 -128 -16 -140 -21 -22 -40 -20
-58 6 -12 17 -16 50 -16 140 l0 118 -30 0 -30 0 1 -117z"/>
<path d="M7700 6755 c0 -22 4 -25 35 -25 l35 0 0 -135 0 -135 30 0 30 0 0 135
0 135 35 0 c31 0 35 3 35 25 l0 25 -100 0 -100 0 0 -25z"/>
<path d="M7932 6623 l3 -158 88 -3 87 -3 0 26 c0 24 -2 25 -60 25 l-60 0 0 45
0 45 55 0 c52 0 55 1 55 24 0 23 -4 25 -52 28 l-53 3 -3 38 -3 37 55 0 c53 0
56 1 56 25 0 25 -1 25 -85 25 l-86 0 3 -157z"/>
<path d="M8150 6620 l0 -160 30 0 30 0 0 70 c0 74 7 83 51 60 15 -9 19 -22 19
-70 0 -60 0 -60 30 -60 30 0 30 1 30 53 0 28 -7 65 -15 80 -13 26 -13 31 0 50
23 33 19 90 -8 115 -19 18 -35 22 -95 22 l-72 0 0 -160z m111 110 c42 -23 16
-90 -35 -90 -12 0 -16 11 -16 50 0 53 10 61 51 40z"/>
<path d="M1750 6685 l0 -85 165 0 165 0 0 85 c0 84 0 85 -25 85 -24 0 -25 -3
-25 -55 l0 -55 -50 0 -50 0 0 50 c0 47 -2 50 -25 50 -23 0 -25 -3 -25 -50 l0
-50 -40 0 -40 0 0 55 c0 52 -1 55 -25 55 -25 0 -25 -1 -25 -85z"/>
<path d="M2304 6761 c-49 -21 -64 -58 -64 -152 l0 -89 215 0 215 0 0 35 0 34
-92 3 -93 3 2 34 c0 18 6 38 12 44 6 6 46 13 89 17 l77 5 3 36 3 36 -83 -4
c-59 -3 -90 -10 -109 -23 -25 -18 -27 -18 -46 2 -23 23 -95 33 -129 19z m106
-90 c5 -11 10 -33 10 -50 l0 -31 -60 0 -60 0 0 31 c0 51 16 69 60 69 29 0 42
-5 50 -19z"/>
<path d="M2870 6708 c-60 -41 -75 -86 -75 -228 0 -107 3 -131 21 -164 52 -101
213 -103 274 -4 29 48 26 68 -10 68 -23 0 -31 -5 -36 -24 -9 -39 -48 -68 -89
-68 -72 0 -99 56 -100 202 0 75 4 103 20 135 39 78 123 84 158 12 15 -30 24
-37 48 -37 36 0 38 23 6 71 -30 45 -60 59 -128 59 -42 0 -64 -6 -89 -22z"/>
<path d="M3263 6711 c-18 -11 -42 -40 -55 -63 -20 -38 -23 -57 -23 -163 0
-109 2 -124 25 -165 30 -53 76 -80 140 -80 64 0 110 27 140 80 23 41 25 55 25
170 0 135 -8 161 -60 210 -37 34 -145 41 -192 11z m135 -37 c31 -22 43 -47 53
-119 11 -81 -3 -200 -28 -234 -45 -59 -128 -43 -157 30 -25 62 -25 225 1 276
28 58 86 79 131 47z"/>
<path d="M3840 6491 l0 -241 35 0 35 0 0 99 0 98 71 6 c40 3 84 14 102 24 89
51 83 186 -9 233 -18 8 -69 16 -131 18 l-103 4 0 -241z m215 164 c31 -30 34
-92 6 -126 -15 -19 -30 -24 -85 -27 l-66 -4 0 91 0 91 60 0 c51 0 65 -4 85
-25z"/>
<path d="M4230 6548 c-29 -101 -61 -209 -70 -240 l-18 -58 33 0 c32 0 33 1 52
73 l20 72 76 3 75 3 17 -58 c9 -32 18 -66 21 -75 4 -13 16 -18 41 -18 24 0 34
4 30 13 -2 7 -32 105 -66 217 -79 264 -72 250 -119 250 l-39 0 -53 -182z m150
-88 c0 -12 -12 -14 -59 -12 l-59 4 18 66 c11 37 24 87 31 112 l11 45 29 -100
c15 -55 28 -107 29 -115z"/>
<path d="M4470 6723 c0 -3 34 -71 75 -150 l75 -143 0 -90 0 -90 30 0 30 0 0
92 0 91 75 144 c41 78 75 145 75 149 0 3 -14 4 -32 2 -30 -3 -35 -10 -87 -115
-30 -62 -57 -113 -60 -113 -4 0 -30 52 -60 115 -53 113 -55 115 -88 115 -18 0
-33 -3 -33 -7z"/>
<path d="M4932 6713 c-61 -30 -82 -115 -41 -167 12 -15 61 -47 109 -71 77 -39
90 -49 100 -79 22 -67 -33 -125 -105 -112 -34 7 -75 46 -75 72 0 9 -12 14 -36
14 -32 0 -35 -2 -28 -22 23 -75 72 -108 160 -108 94 0 145 41 152 123 4 47 1
57 -24 87 -17 19 -59 47 -101 67 -82 38 -117 74 -108 113 17 74 126 80 156 9
9 -23 18 -29 40 -29 20 0 29 5 29 15 0 29 -30 75 -60 90 -38 20 -126 19 -168
-2z"/>
<path d="M10618 6604 c-15 -8 -33 -24 -39 -35 -11 -21 -11 -21 -37 4 -55 52
-156 43 -193 -17 -15 -25 -19 -50 -19 -128 l0 -98 260 0 260 0 0 91 c0 105
-16 151 -64 180 -38 23 -129 25 -168 3z m157 -69 c21 -20 25 -34 25 -85 l0
-60 -106 0 -106 0 4 60 c6 83 32 110 105 110 44 0 58 -5 78 -25z m-261 -6 c23
-18 26 -28 26 -80 l0 -59 -85 0 -85 0 0 39 c0 21 5 52 11 68 18 53 86 69 133
32z"/>
<path d="M1750 6460 l0 -100 25 0 c22 0 25 4 25 35 l0 35 140 0 140 0 0 30 0
30 -140 0 -140 0 0 35 c0 31 -3 35 -25 35 l-25 0 0 -100z"/>
<path d="M9654 6526 c-103 -24 -140 -50 -169 -119 -31 -75 -7 -173 53 -216 64
-45 109 -55 257 -55 149 0 200 9 256 47 54 36 79 82 79 143 0 97 -37 150 -129
185 -73 27 -258 35 -347 15z m331 -126 c62 -31 64 -89 4 -125 -30 -18 -52 -20
-196 -20 -148 0 -164 2 -190 21 -20 15 -29 31 -31 56 -6 69 49 88 243 85 100
-2 148 -6 170 -17z"/>
<path d="M9005 6471 l-250 -58 0 -63 0 -63 255 -58 c140 -32 261 -58 268 -58
8 -1 12 14 12 44 0 49 2 48 -90 63 l-45 7 -3 62 -3 61 58 12 c85 17 83 15 83
65 0 36 -3 45 -17 44 -10 0 -130 -26 -268 -58z m65 -121 c0 -35 -3 -40 -22
-39 -24 0 -207 36 -198 39 31 7 189 38 203 39 13 1 17 -7 17 -39z"/>
<path d="M6285 6464 c-82 -24 -167 -49 -187 -54 -34 -10 -38 -14 -38 -44 l0
-34 118 -32 c64 -18 154 -43 200 -56 l83 -23 -3 27 c-3 23 -10 28 -60 40 l-58
14 0 62 0 63 60 16 c53 15 60 20 60 42 0 14 -6 25 -12 24 -7 0 -80 -20 -163
-45z m15 -99 c0 -25 -5 -45 -10 -45 -6 0 -50 10 -98 22 l-87 22 80 22 c115 32
115 32 115 -21z"/>
<path d="M5418 6464 c-43 -23 -58 -63 -58 -154 l0 -80 245 0 245 0 0 25 0 25
-105 0 -105 0 0 45 c0 99 -53 155 -145 155 -27 -1 -62 -7 -77 -16z m121 -45
c39 -14 51 -35 51 -93 l0 -46 -95 0 -95 0 0 38 c0 47 18 83 50 99 31 16 48 16
89 2z"/>
<path d="M2330 6464 c-75 -27 -90 -55 -90 -169 l0 -85 213 2 212 3 3 38 3 37
-90 0 -91 0 0 45 c0 53 -15 90 -46 110 -25 16 -91 27 -114 19z m82 -91 c10 -9
18 -30 18 -50 l0 -33 -65 0 -65 0 0 32 c0 17 7 40 17 50 20 22 70 23 95 1z"/>
<path d="M3590 6430 c0 -19 7 -20 90 -20 83 0 90 1 90 20 0 19 -7 20 -90 20
-83 0 -90 -1 -90 -20z"/>
<path d="M7241 6312 c-90 -45 -126 -147 -119 -342 3 -102 8 -134 26 -175 41
-90 84 -118 179 -119 147 0 211 119 201 369 -7 154 -45 237 -125 271 -45 19
-121 17 -162 -4z m144 -116 c17 -24 20 -46 23 -165 5 -189 -18 -261 -83 -261
-62 0 -89 73 -89 245 0 99 3 127 19 160 34 69 87 77 130 21z"/>
<path d="M6650 6010 c0 -170 0 -313 0 -317 0 -5 23 -8 52 -8 l53 0 3 143 3
142 74 0 74 0 3 -142 3 -143 55 0 55 0 3 318 2 317 -60 0 -60 0 0 -125 0 -125
-75 0 -75 0 0 125 0 125 -55 0 -55 0 0 -310z"/>
<path d="M7622 6004 l3 -317 50 0 50 0 -2 269 -2 269 43 -256 c24 -141 45
-262 48 -269 2 -8 23 -13 53 -13 58 0 47 -32 100 273 20 113 39 213 43 223 4
10 6 -93 4 -229 -2 -135 -1 -251 1 -258 3 -7 24 -10 56 -8 l51 4 0 314 0 314
-83 0 -83 0 -38 -197 c-21 -109 -40 -207 -43 -218 -4 -11 -22 77 -42 195 l-36
215 -88 3 -87 3 2 -317z"/>
<path d="M8232 6004 l3 -316 160 1 c87 1 160 3 162 4 1 2 5 22 9 45 l6 41
-113 3 -114 3 0 90 0 90 103 3 102 3 0 49 0 50 -105 0 -105 0 0 75 0 75 110 0
110 0 0 50 0 50 -165 0 -165 0 2 -316z"/>
<path d="M1750 6164 c0 -104 0 -105 23 -102 18 2 23 10 25 41 l3 37 140 0 139
0 0 30 0 30 -140 0 -140 0 0 35 c0 31 -3 35 -25 35 l-25 0 0 -106z"/>
<path d="M6060 6120 c0 -123 1 -130 20 -130 17 0 20 7 20 50 l0 50 180 0 180
0 0 25 0 25 -180 0 -180 0 0 55 c0 48 -2 55 -20 55 -19 0 -20 -7 -20 -130z"/>
<path d="M8750 6070 l0 -50 271 0 270 0 -3 48 -3 47 -267 3 -268 2 0 -50z"/>
<path d="M10330 5885 l0 -205 35 0 35 0 0 90 0 89 68 3 c65 3 67 4 70 30 3 27
3 27 -65 30 l-68 3 -3 53 -3 52 70 0 71 0 0 30 0 30 -105 0 -105 0 0 -205z"/>
<path d="M10592 5888 l3 -203 35 0 35 0 3 203 2 202 -40 0 -40 0 2 -202z"/>
<path d="M10740 5891 l0 -199 35 -4 34 -4 3 86 c3 82 4 85 28 88 47 5 64 -19
70 -99 l5 -73 34 0 34 0 -2 75 c-1 52 -7 81 -20 99 -17 24 -17 26 7 60 32 48
26 104 -18 143 -28 25 -36 27 -120 27 l-90 0 0 -199z m158 127 c7 -7 12 -26
12 -43 0 -41 -16 -55 -62 -55 l-38 0 0 55 0 55 38 0 c21 0 43 -5 50 -12z"/>
<path d="M11050 5888 l0 -203 102 3 c104 3 118 9 118 45 0 15 -10 17 -75 17
l-75 0 0 60 0 60 65 0 65 0 0 30 0 30 -65 0 -65 0 0 50 0 50 70 0 70 0 0 30 0
30 -105 0 -105 0 0 -202z"/>
<path d="M9560 6048 c-63 -32 -93 -91 -87 -171 7 -75 40 -120 116 -155 49 -23
72 -27 187 -30 197 -6 277 17 331 97 27 40 32 135 9 179 -28 55 -103 102 -161
102 -23 0 -25 -3 -25 -50 0 -40 4 -52 18 -56 55 -17 80 -34 86 -59 10 -38 -15
-72 -61 -85 -61 -17 -212 -23 -283 -11 -77 13 -114 37 -118 77 -3 39 8 53 54
69 38 13 39 15 42 64 l3 51 -33 0 c-19 0 -54 -10 -78 -22z"/>
<path d="M1775 6015 c-22 -21 -25 -33 -25 -95 l0 -70 165 0 165 0 0 30 0 30
-70 0 c-66 0 -70 1 -70 23 0 36 19 47 82 47 58 0 58 0 58 30 0 30 -1 30 -55
30 -31 0 -68 -6 -83 -14 -24 -12 -30 -12 -47 0 -31 23 -92 18 -120 -11z m103
-47 c7 -7 12 -22 12 -35 0 -21 -5 -23 -45 -23 -43 0 -45 1 -45 28 0 16 3 32 7
35 11 11 58 8 71 -5z"/>
<path d="M2260 5575 l0 -465 80 0 80 0 2 208 3 207 110 0 110 0 3 -207 2 -208
80 0 80 0 0 465 0 465 -80 0 -80 0 0 -185 0 -185 -115 0 -115 0 0 185 0 185
-80 0 -80 0 0 -465z"/>
<path d="M2980 5575 l0 -465 234 0 234 0 5 23 c3 12 9 43 12 70 l7 47 -166 0
-166 0 0 135 0 134 148 3 147 3 0 70 0 70 -147 3 -148 3 0 109 0 110 155 0
155 0 0 75 0 75 -235 0 -235 0 0 -465z"/>
<path d="M3741 5997 c-25 -102 -201 -867 -201 -876 0 -7 30 -11 80 -11 74 0
80 1 85 23 3 12 13 63 23 112 l18 90 109 0 110 0 20 -110 20 -110 88 -3 c48
-1 87 -1 87 1 0 7 -210 902 -215 915 -3 8 -34 12 -108 12 l-105 0 -11 -43z
m184 -474 l6 -33 -76 0 c-41 0 -75 3 -75 6 0 3 17 92 37 197 l37 192 32 -165
c18 -91 35 -180 39 -197z"/>
<path d="M4260 5575 l0 -465 234 0 233 0 7 46 c3 26 6 57 6 70 l0 24 -155 0
-155 0 0 395 0 395 -85 0 -85 0 0 -465z"/>
<path d="M4650 5965 l0 -75 95 0 95 0 0 -390 0 -390 85 0 85 0 0 390 0 390
100 0 101 0 -3 73 -3 72 -277 3 -278 2 0 -75z"/>
<path d="M5300 5575 l0 -466 83 3 82 3 2 205 2 205 108 0 108 0 3 -207 2 -208
80 0 80 0 0 465 0 465 -80 0 -80 0 0 -185 0 -186 -111 3 -110 3 -2 180 -2 180
-82 3 -83 3 0 -466z"/>
<path d="M9205 5883 l0 -88 -227 -3 -228 -2 0 -45 0 -45 270 0 271 0 -3 133
-3 132 -40 3 -40 3 0 -88z"/>
<path d="M6060 5920 c0 -18 8 -20 162 -22 l162 -3 -162 -74 -162 -74 0 -34 0
-33 200 0 200 0 0 25 0 25 -162 2 -162 3 162 74 c155 70 162 75 162 102 l0 29
-200 0 c-192 0 -200 -1 -200 -20z"/>
<path d="M1803 5781 c-34 -16 -44 -27 -54 -59 -14 -50 1 -88 49 -115 46 -27
188 -27 235 0 46 27 62 66 48 114 -16 53 -54 72 -156 76 -64 3 -88 0 -122 -16z
m195 -52 c39 -13 47 -34 22 -59 -28 -28 -176 -29 -210 -2 -19 15 -21 22 -11
39 6 12 21 24 33 26 46 9 136 7 166 -4z"/>
<path d="M6060 5510 l0 -110 200 0 200 0 0 110 c0 103 -1 110 -20 110 -18 0
-20 -7 -20 -85 l0 -85 -75 0 -75 0 0 80 c0 73 -2 80 -20 80 -18 0 -20 -7 -20
-80 l0 -80 -65 0 -65 0 0 85 c0 78 -2 85 -20 85 -19 0 -20 -7 -20 -110z"/>
<path d="M1750 5510 l0 -30 65 0 65 0 0 -40 0 -40 -65 0 -65 0 0 -30 0 -30
165 0 165 0 0 30 0 30 -75 0 -75 0 0 40 0 40 75 0 75 0 0 30 0 30 -165 0 -165
0 0 -30z"/>
<path d="M7175 5496 c-64 -29 -85 -80 -85 -210 1 -147 39 -206 133 -206 100 0
137 51 144 195 6 148 -33 221 -123 231 -22 2 -52 -2 -69 -10z m102 -96 c15
-43 16 -153 3 -201 -13 -46 -33 -63 -64 -55 -35 9 -49 62 -45 173 5 103 16
126 63 121 25 -2 33 -9 43 -38z"/>
<path d="M8760 5503 c-8 -3 -27 -17 -42 -31 -24 -22 -28 -34 -28 -77 0 -43 4
-55 28 -77 15 -14 43 -34 62 -43 52 -26 80 -55 80 -85 0 -34 -17 -50 -52 -50
-22 0 -33 8 -46 30 -14 25 -23 30 -55 30 -35 0 -38 -2 -32 -22 20 -74 55 -98
139 -98 47 0 61 4 87 28 25 23 32 38 36 78 6 66 -17 101 -95 142 -66 35 -87
61 -77 92 7 21 47 36 65 25 6 -4 15 -18 20 -31 8 -19 17 -24 45 -24 30 0 35 3
35 23 0 64 -99 116 -170 90z"/>
<path d="M9205 5496 c-64 -28 -85 -80 -85 -213 0 -150 36 -203 136 -203 67 0
111 34 121 93 6 37 5 37 -29 37 -29 0 -37 -5 -49 -32 -11 -27 -20 -33 -44 -33
-46 0 -56 31 -53 158 3 99 5 110 25 127 30 24 62 15 75 -21 8 -24 16 -29 44
-29 39 0 45 20 18 71 -26 51 -99 72 -159 45z"/>
<path d="M9511 5493 c-58 -30 -76 -80 -76 -203 0 -161 34 -210 145 -210 92 0
130 63 130 214 0 96 -14 147 -51 182 -36 35 -101 42 -148 17z m106 -83 c19
-37 17 -203 -2 -240 -20 -39 -58 -40 -82 -3 -23 34 -26 214 -5 251 18 32 71
27 89 -8z"/>
<path d="M11204 5494 c-40 -19 -59 -55 -57 -106 2 -47 28 -80 88 -110 57 -29
85 -58 85 -88 0 -34 -17 -50 -52 -50 -22 0 -33 8 -46 30 -14 25 -23 30 -55 30
-36 0 -37 -1 -31 -27 16 -68 53 -93 138 -93 47 0 61 4 87 28 26 23 32 38 36
78 6 66 -15 97 -96 143 -77 43 -89 60 -73 95 19 42 82 30 82 -16 0 -14 8 -18
41 -18 41 0 41 0 35 32 -8 40 -23 58 -63 75 -42 17 -80 16 -119 -3z"/>
<path d="M12261 5493 c-57 -30 -76 -80 -76 -203 0 -115 12 -150 61 -189 34
-26 118 -29 153 -5 41 29 61 89 61 189 0 50 -5 106 -10 126 -23 81 -115 121
-189 82z m106 -83 c17 -33 17 -207 0 -240 -18 -37 -61 -39 -84 -4 -14 23 -18
48 -18 129 0 120 11 148 58 143 22 -2 35 -11 44 -28z"/>
<path d="M6613 5478 c3 -13 22 -107 43 -210 l37 -188 38 0 38 0 12 58 c40 196
47 227 49 222 1 -3 14 -66 28 -140 l27 -135 40 0 39 0 37 175 c58 270 56 240
11 240 l-38 0 -23 -142 c-12 -78 -23 -143 -24 -145 -2 -1 -16 63 -31 143 l-29
145 -35 -3 -36 -3 -22 -110 c-12 -60 -25 -128 -29 -150 -7 -35 -11 -21 -29
110 l-21 150 -44 3 c-41 3 -43 2 -38 -20z"/>
<path d="M7440 5291 l0 -211 35 0 35 0 0 90 0 90 40 0 c49 0 60 -18 60 -94 0
-76 6 -86 47 -86 l35 0 -3 85 c-3 70 -8 88 -25 106 l-21 21 23 23 c34 34 34
112 0 152 -23 27 -29 28 -125 31 l-101 4 0 -211z m166 124 c23 -35 7 -77 -34
-89 -51 -14 -62 -4 -62 59 l0 55 40 0 c31 0 43 -5 56 -25z"/>
<path d="M7760 5289 l0 -210 38 3 37 3 5 77 c4 55 10 82 22 94 16 16 18 16 27
-7 5 -13 23 -55 39 -94 30 -69 31 -70 71 -73 23 -2 41 0 41 3 0 4 -25 63 -55
131 l-54 123 55 81 55 80 -45 0 -44 0 -54 -87 -53 -87 -3 87 -3 87 -39 0 -40
0 0 -211z"/>
<path d="M8080 5290 l0 -211 113 3 112 3 3 33 3 32 -75 0 -76 0 0 60 0 60 70
0 70 0 0 30 0 30 -70 0 -70 0 0 55 0 55 70 0 70 0 0 30 0 30 -110 0 -110 0 0
-210z"/>
<path d="M8370 5289 l0 -210 38 3 37 3 3 88 3 87 34 0 c43 0 55 -20 55 -94 0
-76 6 -86 47 -86 l35 0 -3 84 c-3 64 -8 89 -22 104 -18 20 -18 21 4 51 41 56
21 149 -37 171 -14 6 -63 10 -110 10 l-84 0 0 -211z m162 134 c42 -38 4 -107
-55 -101 -18 2 -31 6 -29 11 1 4 2 30 2 57 0 49 0 50 32 50 17 0 40 -7 50 -17z"/>
<path d="M9782 5293 l3 -208 33 -3 32 -3 1 168 c1 182 3 180 39 -34 l23 -133
33 0 c39 0 33 -16 73 190 l29 145 1 -167 1 -168 35 0 35 0 0 210 0 210 -54 0
c-34 0 -56 -5 -58 -12 -3 -7 -16 -68 -29 -136 -12 -67 -26 -119 -29 -115 -4 5
-15 55 -24 113 -27 164 -19 150 -87 150 l-59 0 2 -207z"/>
<path d="M10210 5291 l0 -211 35 0 35 0 0 84 0 83 54 6 c91 9 126 46 126 132
0 35 -6 52 -29 77 -29 32 -31 33 -125 36 l-96 4 0 -211z m158 137 c7 -7 12
-29 12 -50 0 -43 -32 -72 -72 -66 -21 3 -23 9 -26 66 l-3 62 39 0 c21 0 43 -5
50 -12z"/>
<path d="M10520 5290 l0 -211 113 3 112 3 3 33 3 32 -75 0 -76 0 0 60 0 60 70
0 70 0 0 30 0 30 -70 0 -70 0 0 55 0 55 70 0 70 0 0 30 0 30 -110 0 -110 0 0
-210z"/>
<path d="M10810 5289 l0 -210 33 3 32 3 3 145 3 145 39 -105 c22 -58 47 -124
56 -148 16 -42 17 -43 58 -40 l41 3 3 208 2 207 -35 0 -35 0 -1 -142 c0 -93
-3 -136 -9 -123 -5 11 -30 75 -56 143 l-47 122 -43 0 -44 0 0 -211z"/>
<path d="M11535 5488 c-6 -19 -95 -393 -95 -402 0 -4 17 -6 37 -4 37 3 38 5
48 53 l11 50 51 3 51 3 12 -56 11 -55 40 0 c21 0 39 2 39 5 0 5 -77 325 -91
378 -10 36 -10 37 -60 37 -31 0 -51 -5 -54 -12z m71 -140 c20 -95 20 -98 -22
-98 -25 0 -35 4 -31 13 2 6 10 45 17 85 7 39 15 70 18 68 2 -3 10 -33 18 -68z"/>
<path d="M11720 5470 c0 -29 2 -30 45 -30 l45 0 2 -177 3 -178 38 -3 37 -3 0
180 0 181 45 0 c43 0 45 1 45 30 l0 30 -130 0 -130 0 0 -30z"/>
<path d="M12032 5293 l3 -208 38 -3 37 -3 0 210 0 211 -40 0 -40 0 2 -207z"/>
<path d="M12532 5293 l3 -208 33 -3 32 -3 0 153 1 153 57 -150 57 -150 43 -3
42 -3 0 210 0 211 -35 0 -35 0 0 -137 -1 -138 -53 135 -53 135 -47 3 -46 3 2
-208z"/>
<path d="M6099 5302 c-33 -30 -34 -32 -37 -121 l-4 -91 201 0 201 0 0 25 c0
25 -1 25 -90 25 l-90 0 0 48 c0 67 17 80 105 84 69 3 70 3 73 32 3 26 1 28
-20 23 -13 -4 -48 -7 -79 -7 -42 0 -61 -5 -78 -21 l-22 -21 -24 22 c-13 12
-41 24 -63 27 -34 4 -44 1 -73 -25z m124 -54 c10 -12 17 -37 17 -64 l0 -44
-70 0 -70 0 0 48 c0 68 26 96 80 86 14 -3 33 -14 43 -26z"/>
<path d="M1939 5286 c-14 -8 -37 -37 -52 -65 -30 -55 -60 -72 -84 -48 -19 19
-10 47 17 54 14 4 20 14 20 34 0 37 -27 39 -67 5 -52 -45 -29 -147 37 -161 48
-11 82 10 118 70 35 58 59 73 92 55 27 -15 25 -46 -5 -66 -17 -11 -25 -26 -25
-44 0 -23 3 -27 24 -23 68 13 95 118 45 169 -31 30 -85 39 -120 20z"/>
<path d="M596 4920 c-38 -12 -73 -46 -99 -95 -20 -36 -22 -56 -22 -180 0 -122
3 -145 21 -179 26 -51 60 -76 119 -87 93 -17 179 22 211 98 24 56 20 63 -39
63 -51 0 -53 -1 -62 -32 -13 -42 -53 -63 -89 -47 -40 19 -51 61 -51 199 0 103
3 131 18 153 35 54 109 45 125 -15 8 -32 11 -33 61 -36 l54 -3 -6 38 c-7 41
-30 77 -69 106 -29 22 -127 32 -172 17z"/>
<path d="M3385 4912 c-61 -29 -78 -54 -83 -121 -4 -54 -2 -60 28 -94 17 -20
61 -50 98 -68 90 -42 112 -63 112 -110 0 -28 -6 -42 -22 -53 -45 -32 -110 -11
-122 39 -6 23 -11 25 -62 25 l-56 0 7 -27 c21 -86 82 -127 185 -127 116 2 180
55 180 151 0 81 -23 112 -123 163 -104 54 -117 66 -117 105 0 40 16 55 56 55
37 0 64 -22 64 -51 0 -16 7 -19 55 -19 50 0 55 2 55 23 0 29 -33 82 -65 103
-39 26 -141 29 -190 6z"/>
<path d="M136 4903 c-3 -10 -32 -124 -66 -253 -34 -129 -63 -243 -66 -253 -5
-16 0 -18 47 -15 59 3 56 0 79 96 l11 42 69 0 c76 0 69 7 90 -87 l12 -53 54 0
c37 0 54 4 54 13 0 6 -31 127 -69 267 l-68 255 -71 3 c-61 2 -71 0 -76 -15z
m98 -183 c10 -47 20 -93 22 -102 5 -16 -2 -18 -46 -18 -46 0 -52 2 -48 18 3
10 13 59 24 110 10 50 21 88 25 84 3 -4 14 -45 23 -92z"/>
<path d="M880 4880 l0 -40 65 0 65 0 2 -227 3 -228 53 -3 52 -3 0 230 0 231
65 0 65 0 0 40 0 40 -185 0 -185 0 0 -40z"/>
<path d="M1312 4703 c3 -249 10 -271 83 -308 56 -27 157 -26 210 1 74 39 80
59 83 307 l3 217 -55 0 -55 0 -3 -216 c-3 -200 -4 -217 -22 -230 -30 -21 -89
-18 -112 7 -17 19 -19 41 -22 230 l-3 209 -55 0 -55 0 3 -217z"/>
<path d="M1875 4898 c-3 -13 -34 -131 -69 -263 -35 -132 -61 -243 -59 -247 2
-5 26 -8 53 -8 l48 0 12 53 c21 94 14 87 90 87 76 0 69 7 90 -87 l12 -53 54 0
c37 0 54 4 54 13 -1 6 -31 127 -68 267 l-68 255 -72 3 c-67 3 -72 2 -77 -20z
m99 -173 c9 -45 19 -91 23 -103 5 -21 2 -22 -47 -22 -46 0 -52 2 -48 18 3 10
13 59 24 110 10 50 21 88 25 84 3 -4 14 -43 23 -87z"/>
<path d="M2230 4650 l0 -270 50 0 50 0 0 115 0 115 49 0 c77 0 89 -19 93 -150
l3 -75 54 -3 54 -3 -8 103 c-7 106 -15 134 -46 155 -16 12 -14 16 17 47 22 22
34 44 35 63 5 136 -44 172 -233 173 l-118 0 0 -270z m214 184 c23 -9 39 -66
26 -98 -11 -31 -45 -46 -101 -46 l-39 0 0 75 0 75 49 0 c27 0 56 -3 65 -6z"/>
<path d="M2680 4649 l0 -270 53 3 52 3 3 268 2 267 -55 0 -55 0 0 -271z"/>
<path d="M2902 4653 l3 -268 149 -3 c82 -1 153 1 157 5 4 5 9 24 11 43 l3 35
-107 3 -108 3 0 74 0 75 95 0 95 0 0 45 0 45 -95 0 -95 0 0 65 0 65 100 0 100
0 0 40 0 40 -155 0 -155 0 2 -267z"/>
<path d="M11260 4909 c-41 -17 -80 -60 -112 -124 -17 -33 -39 -70 -51 -82 -40
-44 -117 -20 -117 35 0 28 34 62 60 62 18 0 20 7 20 55 l0 55 -32 -7 c-109
-20 -159 -138 -108 -251 35 -78 154 -106 228 -54 16 12 46 54 67 94 49 93 74
118 120 118 93 0 102 -123 10 -146 -22 -6 -25 -11 -25 -55 0 -47 1 -49 28 -49
77 0 142 80 142 174 0 61 -31 130 -72 160 -31 22 -120 31 -158 15z"/>
<path d="M5244 4900 c-69 -10 -151 -56 -181 -101 -79 -119 -67 -260 31 -354
34 -34 89 -70 163 -108 151 -77 181 -116 170 -214 -8 -70 -41 -98 -117 -98
-52 0 -62 4 -90 30 -18 17 -35 48 -42 72 l-10 43 -91 0 -90 0 6 -49 c19 -161
145 -250 336 -239 130 8 212 55 264 152 32 60 32 213 0 272 -33 62 -103 117
-232 183 -64 33 -125 69 -135 80 -26 29 -33 109 -12 149 21 41 80 59 128 39
42 -18 53 -32 67 -84 l12 -43 91 0 90 0 -7 45 c-18 123 -91 202 -200 220 -75
12 -100 12 -151 5z"/>
<path d="M9099 4900 c-94 -16 -180 -84 -220 -175 -47 -107 -66 -288 -50 -468
18 -192 62 -285 161 -341 44 -24 67 -30 134 -34 97 -5 148 7 212 51 57 37 110
131 120 210 l7 47 -91 0 -90 0 -7 -37 c-15 -84 -54 -123 -121 -123 -35 0 -47
6 -72 35 -17 19 -36 51 -42 72 -30 103 -29 427 1 513 29 84 83 118 155 99 40
-12 69 -52 79 -111 l7 -38 90 0 91 0 -6 50 c-8 64 -40 137 -79 177 -57 59
-175 90 -279 73z"/>
<path d="M10540 4893 c-28 -10 -52 -38 -77 -88 -34 -68 -51 -85 -84 -85 -53 0
-64 73 -13 86 20 5 24 12 24 46 0 40 0 40 -32 34 -95 -18 -119 -175 -35 -226
69 -42 139 -17 183 64 38 71 62 96 96 96 61 0 72 -91 13 -106 -21 -5 -25 -12
-25 -45 0 -35 2 -39 26 -39 16 0 38 12 58 33 85 84 35 238 -77 236 -23 0 -49
-3 -57 -6z"/>
<path d="M3860 4395 l0 -495 95 0 95 0 0 495 0 495 -95 0 -95 0 0 -495z"/>
<path d="M4230 4395 l0 -495 87 0 86 0 -6 363 -5 362 57 -155 c31 -85 92 -248
135 -362 l79 -208 103 0 104 0 0 495 0 495 -86 0 -85 0 3 -344 c2 -189 2 -344
2 -343 -1 1 -25 63 -52 137 -28 74 -87 227 -131 340 l-80 205 -105 3 -106 3 0
-496z"/>
<path d="M5742 4488 c3 -396 3 -404 26 -453 30 -65 63 -98 126 -127 44 -20 67
-23 166 -23 130 1 163 11 228 69 22 20 50 60 63 89 24 51 24 56 27 450 l3 397
-95 0 -96 0 0 -381 c0 -419 -2 -434 -61 -464 -42 -22 -111 -19 -143 6 -60 48
-61 49 -64 462 l-4 377 -89 0 -90 0 3 -402z"/>
<path d="M6540 4396 l0 -496 95 0 95 0 0 211 0 211 80 -4 c70 -3 83 -6 106
-29 33 -33 43 -84 44 -220 0 -59 3 -121 6 -138 l7 -31 88 0 88 0 -5 108 c-10
230 -12 252 -34 297 -12 25 -35 54 -52 66 l-30 22 28 18 c66 43 96 108 96 210
1 120 -44 197 -142 243 -40 19 -67 21 -257 24 l-213 4 0 -496z m341 344 c54
-15 82 -51 87 -113 5 -67 -16 -120 -57 -141 -17 -9 -64 -19 -106 -23 l-75 -6
0 147 0 146 58 0 c31 0 73 -5 93 -10z"/>
<path d="M7461 4853 c-6 -21 -58 -236 -116 -478 -58 -242 -108 -448 -111 -457
-5 -16 4 -18 88 -18 l94 0 25 123 25 122 117 3 c88 2 119 -1 122 -10 3 -7 15
-62 28 -123 l23 -110 97 -3 c97 -3 98 -3 92 20 -3 13 -28 115 -55 228 -28 113
-75 309 -106 435 -30 127 -60 247 -65 268 l-10 37 -119 0 -119 0 -10 -37z
m169 -341 c22 -106 40 -197 40 -202 0 -6 -37 -10 -86 -10 -79 0 -86 2 -81 19
2 10 22 105 43 210 21 106 40 189 41 184 2 -4 21 -95 43 -201z"/>
<path d="M8040 4395 l0 -495 86 0 86 0 -4 361 c-2 264 0 353 8 332 6 -15 66
-178 135 -360 l124 -333 102 0 103 0 0 495 0 495 -86 0 -86 0 4 -343 4 -343
-67 175 c-37 97 -96 250 -131 341 l-64 165 -107 3 -107 3 0 -496z"/>
<path d="M9580 4395 l0 -495 264 0 c220 0 265 2 269 14 3 8 9 42 13 75 l7 61
-187 0 -186 0 0 145 0 145 165 0 165 0 0 75 0 75 -165 0 -166 0 3 123 3 122
173 3 172 2 0 75 0 75 -265 0 -265 0 0 -495z"/>
<path d="M10280 4539 l0 -41 139 4 c77 1 137 1 135 -2 -3 -2 -64 -28 -137 -56
l-132 -51 -3 -47 -3 -46 215 0 216 0 0 35 0 34 -152 3 -153 3 150 56 150 56 0
44 0 44 -212 3 -213 2 0 -41z"/>
<path d="M10910 4350 l0 -180 45 0 45 0 0 60 0 60 238 2 237 3 3 53 3 52 -240
0 -241 0 0 65 0 65 -45 0 -45 0 0 -180z"/>
<path d="M10409 4230 c-85 -15 -129 -55 -136 -122 -6 -61 20 -107 77 -135 37
-19 60 -23 145 -23 85 0 108 4 145 23 104 52 104 187 -1 239 -41 20 -165 30
-230 18z m211 -95 c36 -19 40 -53 9 -81 -29 -26 -198 -33 -252 -10 -35 14 -38
19 -35 48 4 46 34 58 151 58 69 0 107 -5 127 -15z"/>
<path d="M840 4030 l0 -161 23 3 c21 3 22 8 27 118 l5 115 18 -110 c10 -60 22
-114 27 -118 4 -5 16 -7 26 -5 16 2 24 26 44 128 l25 125 3 -127 3 -128 24 0
25 0 0 161 0 160 -42 -3 -42 -3 -22 -105 c-20 -100 -21 -103 -28 -65 -4 22
-13 69 -20 105 l-12 65 -42 3 -42 3 0 -161z"/>
<path d="M1191 4153 c-30 -114 -61 -248 -61 -264 0 -14 7 -19 25 -19 19 0 26
7 31 28 11 50 13 52 54 52 34 0 40 -3 40 -21 0 -31 19 -59 40 -59 10 0 21 3
24 8 2 4 -12 75 -32 157 l-37 150 -37 3 c-35 3 -37 1 -47 -35z m68 -135 c1
-13 -7 -18 -25 -18 -25 0 -26 2 -20 33 4 17 10 48 14 67 l6 35 12 -50 c7 -27
13 -58 13 -67z"/>
<path d="M1427 4183 c-4 -3 -7 -64 -7 -135 l0 -128 -26 0 c-21 0 -25 -4 -22
-22 4 -32 59 -37 87 -9 19 19 21 33 21 161 0 140 0 140 -23 140 -13 0 -27 -3
-30 -7z"/>
<path d="M1577 4179 c-30 -17 -47 -73 -47 -149 0 -116 29 -160 105 -160 55 0
91 41 100 113 10 78 -1 141 -31 177 -21 25 -33 30 -67 30 -23 0 -50 -5 -60
-11z m77 -42 c23 -17 34 -129 16 -181 -9 -28 -17 -36 -35 -36 -14 0 -29 9 -35
19 -16 31 -13 163 6 189 18 26 24 27 48 9z"/>
<path d="M1786 4182 c-3 -5 -4 -76 -3 -158 l2 -149 28 -3 27 -3 0 70 c0 67 1
71 23 71 38 0 48 -15 54 -79 6 -59 7 -62 31 -59 25 3 26 5 23 63 -1 33 -8 69
-15 80 -11 17 -11 22 0 33 36 34 23 110 -22 131 -29 13 -140 15 -148 3z m129
-62 c10 -31 -3 -57 -31 -64 -35 -9 -44 0 -44 45 0 38 1 39 34 39 26 0 36 -5
41 -20z"/>
<path d="M2112 4033 l3 -158 25 0 25 0 0 117 c0 131 6 133 25 8 17 -114 25
-132 53 -128 20 3 24 14 42 115 11 61 22 114 25 116 3 3 5 -47 5 -111 l0 -117
25 0 25 0 3 158 3 157 -45 0 -44 0 -18 -100 c-10 -55 -21 -100 -24 -100 -3 0
-12 39 -19 88 -8 48 -16 93 -18 100 -3 7 -23 12 -49 12 l-45 0 3 -157z"/>
<path d="M2430 4030 l0 -161 83 3 c76 3 82 5 85 25 3 20 -1 22 -55 25 l-58 3
-3 42 -3 42 53 3 c46 3 53 6 56 25 3 20 -2 22 -50 25 l-53 3 -3 38 -3 37 55 0
c53 0 56 1 56 25 0 25 -1 25 -80 25 l-80 0 0 -160z"/>
<path d="M2640 4029 l0 -162 62 6 c98 9 136 53 137 157 2 114 -39 160 -141
160 l-58 0 0 -161z m127 81 c24 -48 12 -162 -20 -182 -7 -4 -20 -8 -29 -8 -16
0 -18 12 -18 111 l0 110 27 -3 c17 -2 32 -12 40 -28z"/>
<path d="M2890 4030 l0 -160 25 0 25 0 0 160 0 160 -25 0 -25 0 0 -160z"/>
<path d="M3032 4167 c-63 -67 -53 -255 14 -286 44 -20 83 -13 115 18 37 38 39
71 4 71 -18 0 -28 -7 -35 -25 -7 -17 -17 -25 -34 -25 -19 0 -27 8 -36 36 -18
52 -7 164 16 181 23 17 36 13 49 -15 7 -15 19 -22 37 -22 36 0 38 31 3 65 -33
34 -102 35 -133 2z"/>
<path d="M3285 4178 c-14 -39 -71 -298 -67 -303 3 -3 13 -5 23 -5 21 0 39 28
39 59 0 18 6 21 40 21 41 0 43 -2 54 -52 5 -21 12 -28 31 -28 13 0 26 3 28 8
2 4 -12 75 -32 157 l-37 150 -37 3 c-24 2 -39 -1 -42 -10z m65 -165 c0 -7 -11
-13 -25 -13 -29 0 -29 -2 -13 76 l12 58 12 -54 c7 -30 13 -61 14 -67z"/>
<path d="M3470 4030 l0 -160 79 0 c63 0 80 3 85 16 12 30 6 34 -49 34 l-55 0
0 135 0 135 -30 0 -30 0 0 -160z"/>
<path d="M10910 4065 l0 -45 193 -2 192 -3 -65 -24 c-36 -13 -122 -46 -192
-73 l-128 -50 0 -59 0 -59 285 0 285 0 0 45 0 45 -207 0 -208 1 207 77 208 77
0 58 0 57 -285 0 -285 0 0 -45z"/>
<path d="M10280 3840 l0 -40 215 0 215 0 0 40 0 40 -215 0 -215 0 0 -40z"/>
<path d="M10280 3620 l0 -141 33 3 c31 3 32 5 35 51 l3 47 180 0 179 0 0 40 0
40 -179 0 -180 0 -3 48 c-3 45 -4 47 -35 50 l-33 3 0 -141z"/>
<path d="M1930 3688 c-60 -31 -90 -77 -90 -140 0 -96 28 -131 154 -193 91 -45
118 -72 118 -118 0 -51 -17 -75 -58 -83 -50 -9 -83 9 -101 56 l-16 40 -59 0
c-54 0 -58 -2 -58 -22 1 -38 36 -104 68 -126 48 -35 121 -47 193 -34 111 21
165 86 157 193 -6 83 -39 121 -159 181 -52 26 -100 55 -106 65 -18 23 -16 64
3 91 13 19 24 22 57 20 39 -3 44 -7 62 -46 l20 -43 55 3 c55 3 55 3 52 33 -10
90 -66 136 -176 142 -60 4 -78 1 -116 -19z"/>
<path d="M3669 3700 c-90 -27 -141 -130 -108 -217 17 -47 60 -83 151 -129 47
-24 94 -54 102 -66 24 -34 20 -85 -9 -113 -45 -46 -113 -25 -141 41 -14 33
-16 34 -74 34 l-59 0 6 -32 c11 -61 46 -109 99 -137 41 -21 128 -24 185 -8 86
25 132 85 132 172 0 89 -42 141 -162 199 -40 20 -80 41 -88 48 -24 20 -34 55
-22 85 13 34 26 43 66 43 34 0 73 -37 73 -71 0 -17 8 -19 61 -19 l62 0 -7 41
c-14 87 -84 139 -186 138 -30 0 -67 -4 -81 -9z"/>
<path d="M4145 3698 c-75 -26 -123 -110 -110 -190 10 -58 56 -103 156 -153 97
-49 119 -72 119 -126 0 -45 -36 -79 -82 -79 -35 0 -88 48 -88 79 0 19 -6 21
-61 21 l-62 0 6 -42 c10 -75 72 -131 157 -143 171 -24 290 86 251 232 -15 57
-58 96 -155 145 -105 52 -116 63 -116 108 0 44 24 70 66 70 39 0 50 -9 69 -53
15 -36 16 -37 71 -37 l57 0 -6 42 c-7 54 -33 88 -87 116 -48 24 -131 29 -185
10z"/>
<path d="M5762 3674 l3 -36 145 -58 c130 -52 142 -59 120 -68 -178 -70 -263
-107 -267 -118 -2 -7 -3 -24 -1 -38 l3 -25 185 80 184 79 113 0 113 0 0 30 0
30 -114 0 -114 0 -154 66 c-84 36 -168 73 -186 81 l-33 14 3 -37z"/>
<path d="M8104 3699 c-45 -13 -101 -74 -121 -133 -14 -38 -18 -82 -18 -176 0
-150 14 -204 66 -264 46 -52 110 -73 187 -61 115 17 163 81 182 241 16 145
-10 285 -63 343 -49 53 -149 75 -233 50z m110 -90 c37 -17 58 -71 64 -164 11
-183 -19 -277 -90 -283 -75 -6 -101 62 -96 249 3 135 15 174 58 196 31 16 33
16 64 2z"/>
<path d="M8582 3548 l3 -163 28 -3 27 -3 0 70 0 71 55 0 c52 0 55 1 55 24 0
23 -4 25 -52 28 l-53 3 0 40 0 40 58 3 c53 3 57 5 57 27 0 25 -1 25 -90 25
l-90 0 2 -162z"/>
<path d="M8800 3545 l0 -166 28 3 27 3 0 160 0 160 -27 3 -28 3 0 -166z"/>
<path d="M8920 3545 l0 -165 25 0 25 0 1 118 0 117 43 -115 44 -115 33 0 34 0
0 160 0 160 -27 3 -28 3 0 -108 -1 -108 -42 108 c-41 106 -42 107 -74 107
l-33 0 0 -165z"/>
<path d="M9235 3698 c-7 -19 -75 -301 -75 -310 0 -4 13 -8 29 -8 27 0 31 4 38
43 8 41 10 42 48 42 38 0 40 -1 48 -42 7 -39 11 -43 38 -43 36 0 36 -3 -10
180 l-36 145 -38 3 c-24 2 -39 -1 -42 -10z m59 -140 c7 -36 5 -38 -19 -38 -29
0 -29 1 -13 72 12 57 15 53 32 -34z"/>
<path d="M9425 3698 c-3 -8 -4 -81 -3 -163 l3 -150 27 -3 27 -3 3 111 3 111
40 -108 c39 -105 41 -108 73 -111 l32 -3 0 165 0 166 -25 0 c-24 0 -24 -1 -27
-107 l-3 -106 -40 104 c-39 100 -41 104 -73 107 -20 2 -34 -2 -37 -10z"/>
<path d="M9720 3682 c-21 -22 -30 -42 -35 -86 -13 -103 8 -185 52 -205 62 -29
135 1 149 62 6 25 4 27 -23 27 -20 0 -31 -7 -38 -22 -12 -29 -47 -35 -66 -12
-19 23 -19 174 0 197 21 26 59 22 67 -8 5 -19 13 -25 35 -25 38 0 39 27 3 69
-22 26 -33 31 -71 31 -36 0 -50 -6 -73 -28z"/>
<path d="M9930 3545 l0 -166 88 3 c82 3 87 4 90 26 3 21 0 22 -57 22 l-61 0 0
50 0 50 55 0 c52 0 55 1 55 25 0 24 -3 25 -55 25 l-55 0 0 40 0 40 55 0 c52 0
55 1 55 25 0 25 -1 25 -85 25 l-85 0 0 -165z"/>
<path d="M830 3384 l0 -316 138 4 c128 3 140 5 184 31 71 41 100 114 82 206
-7 32 -47 83 -74 93 -12 5 -10 9 9 23 50 37 64 120 32 191 -31 67 -78 84 -239
84 l-132 0 0 -316z m233 215 c30 -16 37 -28 37 -69 0 -19 -4 -40 -8 -46 -14
-21 -51 -34 -96 -34 l-46 0 0 80 0 80 46 0 c25 0 55 -5 67 -11z m23 -263 c24
-20 28 -30 27 -77 -1 -72 -30 -99 -109 -99 l-54 0 0 100 0 100 54 0 c43 0 61
-5 82 -24z"/>
<path d="M1320 3468 c0 -128 5 -251 10 -272 21 -92 83 -131 205 -131 89 1 127
15 168 64 38 46 47 111 47 351 l0 220 -65 0 -65 0 0 -244 c0 -232 -1 -244 -21
-270 -18 -23 -27 -27 -67 -24 -36 2 -49 9 -66 31 -20 27 -21 43 -24 268 l-3
239 -60 0 -59 0 0 -232z"/>
<path d="M2330 3385 l0 -315 60 0 60 0 0 315 0 315 -60 0 -60 0 0 -315z"/>
<path d="M2570 3385 l0 -315 55 0 55 0 0 228 1 227 90 -227 90 -228 65 0 64 0
0 315 0 315 -56 0 -57 0 5 -217 c3 -120 4 -213 2 -208 -2 6 -42 102 -87 215
l-83 205 -72 3 -72 3 0 -316z"/>
<path d="M3112 3388 l3 -313 176 -3 176 -2 7 37 c3 21 6 43 6 50 0 9 -34 13
-122 15 l-123 3 -3 87 -3 87 113 3 113 3 3 47 3 47 -113 3 -113 3 -3 72 -3 72
118 3 118 3 3 48 3 47 -181 0 -180 0 2 -312z"/>
<path d="M6621 3663 c-5 -21 -40 -155 -76 -298 -36 -143 -69 -268 -71 -278 -5
-16 1 -18 58 -15 l63 3 16 75 15 75 80 3 81 3 17 -81 18 -80 65 0 c57 0 64 2
59 18 -3 9 -35 134 -71 277 -36 143 -71 277 -76 298 l-10 37 -79 0 -79 0 -10
-37z m114 -197 c14 -64 25 -121 25 -126 0 -6 -25 -10 -56 -10 -41 0 -55 3 -52
13 3 6 15 65 29 129 13 64 25 116 26 114 2 -2 15 -56 28 -120z"/>
<path d="M7010 3467 c0 -270 9 -320 63 -361 68 -52 211 -59 278 -13 80 54 88
89 88 390 l1 217 -65 0 -65 0 0 -244 c0 -232 -1 -244 -21 -270 -18 -23 -27
-27 -67 -24 -36 2 -49 9 -66 31 -20 27 -21 43 -24 268 l-4 239 -59 0 -59 0 0
-233z"/>
<path d="M7510 3650 l0 -50 70 0 70 0 2 -262 3 -263 60 0 60 0 3 263 2 262 70
0 70 0 0 50 0 50 -205 0 -205 0 0 -50z"/>
<path d="M5390 3526 l0 -166 -125 0 -125 0 0 150 0 150 -65 0 -65 0 0 -150 0
-150 -105 0 -105 0 0 155 0 155 -70 0 -70 0 0 -235 0 -235 435 0 435 0 0 234
0 234 -22 5 c-13 3 -44 9 -70 12 l-48 7 0 -166z"/>
<path d="M11390 3575 l0 -105 -80 0 -80 0 0 95 0 95 -45 0 -45 0 0 -95 0 -95
-70 0 -70 0 0 100 0 100 -45 0 -46 0 3 -152 3 -153 280 0 280 0 3 151 3 151
-32 7 c-61 12 -59 15 -59 -99z"/>
<path d="M10480 3460 c-107 -27 -196 -49 -197 -50 -2 0 -3 -24 -3 -53 l0 -54
78 -17 c42 -9 139 -32 215 -50 l138 -34 -3 42 -3 41 -52 9 -53 9 0 53 0 53 55
11 55 11 0 40 c0 31 -4 39 -17 38 -10 -1 -106 -23 -213 -49z m50 -105 c0 -32
-2 -35 -22 -30 -13 3 -52 11 -88 18 l-65 14 60 12 c33 7 65 14 70 16 34 12 45
4 45 -30z"/>
<path d="M5760 3125 l0 -165 30 0 30 0 0 65 0 65 270 0 270 0 0 35 0 35 -270
0 -270 0 0 65 0 65 -30 0 -30 0 0 -165z"/>
<path d="M9295 3268 c-51 -45 -43 -188 12 -209 13 -5 31 -9 39 -9 17 0 64 44
64 60 0 16 -38 12 -48 -6 -5 -9 -18 -14 -28 -12 -17 3 -19 12 -19 78 0 66 2
75 19 78 10 2 23 -3 28 -12 10 -18 48 -22 48 -6 0 18 -48 60 -69 60 -11 0 -32
-10 -46 -22z"/>
<path d="M8570 3170 l0 -110 50 0 c78 0 108 42 97 136 -7 65 -28 84 -94 84
l-53 0 0 -110z m98 50 c23 -44 0 -130 -34 -130 -11 0 -14 19 -14 81 0 71 2 80
17 77 10 -2 23 -14 31 -28z"/>
<path d="M8750 3170 l0 -110 65 0 c50 0 65 3 65 14 0 10 -14 16 -42 18 -40 3
-43 5 -43 33 0 27 3 30 38 33 23 2 37 8 37 17 0 9 -14 15 -37 17 -33 3 -38 6
-38 28 0 22 5 25 38 28 24 2 37 8 37 18 0 11 -14 14 -60 14 l-60 0 0 -110z"/>
<path d="M8910 3170 l0 -110 49 0 c67 0 91 29 91 110 0 81 -24 110 -91 110
l-49 0 0 -110z m91 59 c14 -28 6 -118 -12 -130 -33 -21 -39 -10 -39 71 0 73 2
80 20 80 10 0 24 -10 31 -21z"/>
<path d="M9082 3185 c3 -103 12 -120 63 -131 22 -4 38 0 58 16 26 21 27 25 27
116 0 87 -1 94 -20 94 -18 0 -20 -7 -20 -82 0 -91 -8 -112 -36 -106 -17 3 -19
14 -22 96 -3 91 -3 92 -28 92 l-26 0 4 -95z"/>
<path d="M9420 3265 c0 -9 9 -15 25 -15 25 0 25 0 25 -95 0 -88 2 -95 20 -95
18 0 20 8 22 93 l3 92 28 3 c15 2 27 9 27 18 0 11 -17 14 -75 14 -60 0 -75 -3
-75 -15z"/>
<path d="M9590 3170 c0 -103 1 -110 20 -110 19 0 20 7 20 110 0 103 -1 110
-20 110 -19 0 -20 -7 -20 -110z"/>
<path d="M9670 3170 l0 -110 54 0 c36 0 60 5 70 16 19 18 21 75 4 92 -9 9 -9
15 0 24 18 18 15 53 -6 71 -12 11 -36 17 -70 17 l-52 0 0 -110z m97 64 c8 -20
-21 -49 -41 -41 -9 4 -16 18 -16 32 0 20 5 25 25 25 14 0 28 -7 32 -16z m-2
-109 c0 -25 -4 -30 -27 -33 -26 -3 -28 -1 -28 33 0 34 2 36 28 33 23 -3 27 -8
27 -33z"/>
<path d="M9841 3170 l-2 -110 66 0 c51 0 65 3 65 15 0 11 -11 15 -40 15 l-40
0 0 95 c0 93 0 95 -24 95 -23 0 -24 -1 -25 -110z"/>
<path d="M9990 3170 l0 -110 59 0 c43 0 60 4 65 15 4 12 -4 15 -39 15 -45 0
-45 0 -45 35 0 34 1 35 40 35 29 0 40 4 40 15 0 11 -11 15 -40 15 -38 0 -40 2
-40 30 0 28 2 30 40 30 29 0 40 4 40 15 0 12 -13 15 -60 15 l-60 0 0 -110z"/>
<path d="M10912 3183 l3 -77 184 -38 c101 -20 185 -39 187 -41 2 -2 -42 -12
-98 -21 -57 -9 -142 -24 -190 -33 l-88 -16 0 -78 0 -79 285 0 285 0 0 45 0 45
-232 2 -233 3 233 39 232 39 0 48 0 48 -57 12 c-32 6 -134 26 -228 44 l-170
33 228 1 227 1 0 50 0 50 -285 0 -286 0 3 -77z"/>
<path d="M10640 3095 l0 -75 -180 0 -180 0 0 -40 0 -40 215 0 215 0 0 115 0
115 -35 0 -35 0 0 -75z"/>
<path d="M4660 2855 l0 -235 435 0 435 0 0 80 0 80 -187 2 -188 3 -3 148 -3
147 -64 0 -65 0 0 -150 0 -150 -110 0 -110 0 0 155 0 155 -70 0 -70 0 0 -235z"/>
<path d="M2391 2914 c-54 -45 -77 -180 -50 -303 14 -65 53 -101 110 -101 22 0
49 5 60 10 22 12 49 61 49 90 0 30 -36 26 -44 -4 -15 -60 -80 -77 -111 -29
-23 34 -32 189 -16 251 22 79 98 93 123 22 12 -35 48 -43 48 -10 0 84 -103
130 -169 74z"/>
<path d="M2961 2926 c-48 -27 -64 -91 -36 -147 9 -17 39 -42 70 -60 65 -36 85
-62 85 -105 0 -79 -106 -88 -133 -11 -8 21 -47 23 -47 2 0 -25 28 -73 49 -85
11 -5 40 -10 65 -10 36 0 52 6 76 28 64 57 47 150 -37 201 -88 55 -93 60 -93
96 0 79 86 89 113 13 8 -22 47 -24 47 -3 0 71 -92 118 -159 81z"/>
<path d="M2695 2918 c-8 -23 -95 -389 -95 -400 0 -5 10 -8 21 -6 18 2 25 15
38 68 l16 65 54 0 55 0 14 -67 c13 -61 17 -68 38 -68 13 0 24 3 24 8 0 7 -72
305 -91 375 -9 32 -14 37 -40 37 -16 0 -32 -6 -34 -12z m54 -129 c12 -51 19
-94 17 -96 -2 -2 -21 -3 -43 -1 l-39 3 20 93 c10 50 20 92 22 92 1 0 12 -41
23 -91z"/>
<path d="M3190 2749 l0 -181 29 -29 c25 -24 38 -29 79 -29 61 0 97 25 112 78
5 20 10 106 10 190 l0 152 -25 0 -25 0 0 -168 c0 -190 -6 -212 -63 -212 -67 0
-77 28 -77 226 0 147 -1 154 -20 154 -19 0 -20 -7 -20 -181z"/>
<path d="M3507 2727 c-26 -111 -48 -205 -47 -209 0 -5 9 -8 20 -8 14 0 22 10
30 43 23 95 21 92 77 95 57 3 52 9 73 -85 10 -46 15 -53 36 -53 13 0 24 2 24
5 0 3 -23 98 -51 210 l-51 205 -32 0 -31 0 -48 -203z m123 -29 c0 -5 -21 -8
-46 -8 -35 0 -45 3 -41 14 3 8 14 51 23 97 l18 82 23 -89 c12 -49 23 -92 23
-96z"/>
<path d="M3770 2720 l0 -210 95 0 c88 0 95 2 95 20 0 17 -8 19 -72 22 l-73 3
-3 188 c-2 179 -3 187 -22 187 -19 0 -20 -7 -20 -210z"/>
<path d="M3920 2910 c0 -17 7 -20 45 -20 l45 0 0 -190 0 -190 25 0 25 0 0 190
0 190 45 0 c38 0 45 3 45 20 0 19 -7 20 -115 20 -108 0 -115 -1 -115 -20z"/>
<path d="M4193 2898 c8 -18 33 -77 56 -130 37 -87 41 -105 41 -177 0 -74 2
-81 20 -81 18 0 20 7 20 81 0 76 3 89 51 198 28 64 53 122 56 129 3 8 -4 12
-20 12 -23 0 -29 -10 -66 -102 -30 -75 -42 -98 -47 -83 -3 11 -20 56 -38 100
-28 70 -35 80 -59 83 -28 3 -28 3 -14 -30z"/>
<path d="M5760 2865 l0 -35 300 0 300 0 0 35 0 35 -300 0 -300 0 0 -35z"/>
<path d="M6866 2876 c-51 -19 -67 -36 -113 -121 -45 -82 -77 -104 -120 -83
-19 9 -29 22 -31 41 -4 35 11 54 49 62 28 6 30 9 28 51 -3 42 -4 44 -33 44
-115 0 -166 -165 -81 -258 32 -36 36 -37 104 -37 63 0 73 3 99 28 16 16 42 52
57 80 36 68 61 95 96 102 85 19 116 -97 33 -127 -32 -11 -34 -15 -34 -60 l0
-47 33 5 c83 16 127 72 127 162 0 124 -101 199 -214 158z"/>
<path d="M10280 2830 l0 -40 168 0 c154 0 170 -2 186 -19 25 -27 17 -72 -14
-88 -17 -9 -76 -13 -182 -13 l-158 0 0 -40 0 -40 163 1 c179 0 219 9 251 52
27 37 29 131 3 171 -32 48 -69 56 -252 56 l-165 0 0 -40z"/>
<path d="M8613 2845 c-84 -36 -94 -163 -17 -224 16 -12 54 -37 84 -54 43 -25
58 -40 67 -69 15 -44 1 -103 -27 -118 -51 -27 -114 -1 -128 53 -6 25 -14 33
-37 35 -27 4 -28 2 -22 -33 13 -79 72 -122 155 -112 83 9 122 57 122 149 0 49
-4 62 -30 91 -16 19 -56 48 -89 66 -86 46 -109 88 -80 144 16 30 28 37 65 37
33 0 57 -20 68 -57 10 -31 56 -33 56 -3 0 84 -99 134 -187 95z"/>
<path d="M9923 2845 c-45 -19 -66 -66 -61 -132 6 -64 25 -88 107 -132 74 -39
92 -60 98 -115 5 -38 2 -48 -20 -70 -18 -18 -37 -26 -59 -26 -42 1 -64 17 -83
64 -12 28 -21 36 -40 36 -29 0 -31 -14 -9 -69 28 -71 107 -98 190 -66 37 14
50 25 65 59 25 54 24 93 -3 146 -19 35 -37 51 -98 85 -79 45 -104 78 -94 125
14 63 85 83 123 34 12 -15 21 -33 21 -40 0 -9 11 -14 31 -14 29 0 31 2 25 28
-21 86 -107 125 -193 87z"/>
<path d="M7355 2838 c-2 -7 -29 -116 -60 -243 -30 -126 -58 -238 -61 -247 -4
-15 1 -18 25 -18 29 0 30 2 48 80 l18 80 70 0 70 0 18 -80 c18 -78 19 -80 48
-80 16 0 29 3 29 8 0 4 -29 120 -63 257 l-63 250 -37 3 c-24 2 -39 -1 -42 -10z
m89 -260 c5 -28 5 -28 -49 -28 -30 0 -55 2 -55 4 0 2 11 53 25 114 14 61 25
114 26 119 1 8 41 -152 53 -209z"/>
<path d="M7620 2590 l0 -260 84 0 c102 0 138 20 176 95 23 45 25 62 25 175 0
111 -3 130 -23 168 -35 65 -70 82 -174 82 l-88 0 0 -260z m172 199 c37 -20 58
-85 58 -188 0 -51 -5 -111 -12 -133 -16 -56 -58 -88 -114 -88 l-44 0 0 210 0
210 46 0 c25 0 54 -5 66 -11z"/>
<path d="M8020 2620 c0 -216 -1 -230 -19 -240 -11 -5 -29 -10 -40 -10 -16 0
-21 -6 -21 -26 0 -26 2 -26 46 -21 29 3 54 13 68 26 20 21 21 32 24 261 l3
240 -30 0 -31 0 0 -230z"/>
<path d="M8180 2620 l5 -230 32 -31 c26 -26 42 -33 86 -37 65 -5 109 14 137
61 18 29 20 51 20 250 l0 217 -24 0 -25 0 -3 -214 c-3 -211 -3 -215 -27 -240
-47 -50 -121 -27 -141 42 -5 20 -10 121 -10 225 l0 187 -27 0 -28 0 5 -230z"/>
<path d="M8842 2828 c3 -20 10 -23 61 -26 l57 -3 0 -234 0 -235 30 0 30 0 0
235 0 234 58 3 c50 3 57 6 60 26 3 22 3 22 -148 22 -151 0 -151 0 -148 -22z"/>
<path d="M9190 2590 l0 -260 125 0 125 0 0 25 c0 25 0 25 -95 25 l-95 0 0 100
0 100 85 0 c84 0 85 0 85 25 0 25 -1 25 -85 25 l-85 0 0 85 0 85 90 0 c89 0
90 0 90 25 l0 25 -120 0 -120 0 0 -260z"/>
<path d="M9510 2590 l0 -260 30 0 30 0 0 120 0 120 48 0 c27 0 56 -6 66 -13
21 -16 35 -79 36 -164 0 -63 0 -63 29 -63 l29 0 -4 83 c-7 118 -12 142 -34
162 -20 18 -20 19 -1 39 41 44 52 111 27 171 -21 50 -59 65 -166 65 l-90 0 0
-260z m176 202 c40 -27 46 -111 9 -147 -19 -20 -34 -25 -75 -25 l-50 0 0 90 0
90 53 0 c28 0 57 -4 63 -8z"/>
<path d="M10910 2697 l0 -53 125 -43 c69 -24 124 -45 123 -47 -2 -2 -57 -23
-123 -47 l-120 -44 -3 -56 c-2 -31 1 -57 5 -57 4 0 87 34 183 75 l175 75 103
0 102 0 0 50 0 50 -102 0 -103 0 -174 75 c-95 41 -177 75 -182 75 -5 0 -9 -24
-9 -53z"/>
<path d="M5766 2713 c-3 -4 -6 -20 -6 -36 l0 -29 245 4 245 4 -243 -97 -242
-97 -3 -41 -3 -41 300 0 301 0 0 30 0 30 -245 2 -244 3 244 95 245 95 0 43 0
43 -294 -1 c-162 -1 -297 -4 -300 -7z"/>
<path d="M6530 2366 l0 -166 40 0 40 0 0 55 0 55 230 0 230 0 0 50 0 50 -227
2 -228 3 -1 55 -1 55 -41 3 -42 3 0 -165z"/>
<path d="M10470 2460 l0 -70 29 0 c25 0 30 4 33 28 3 25 6 27 41 25 55 -3 77
-19 77 -53 0 -44 -39 -60 -148 -60 -106 0 -150 13 -158 46 -8 33 1 53 31 64
20 8 25 16 25 45 0 30 -3 35 -22 35 -65 0 -117 -73 -105 -147 15 -89 82 -127
227 -127 122 0 183 24 206 80 18 42 13 88 -13 116 -15 17 -15 18 1 18 13 0 17
7 14 33 l-3 32 -117 3 -118 3 0 -71z"/>
<path d="M4667 2453 c-4 -3 -7 -42 -7 -85 l0 -78 433 2 432 3 0 80 0 80 -426
3 c-234 1 -429 -1 -432 -5z"/>
<path d="M11215 2336 c-137 -34 -262 -65 -277 -69 -27 -7 -28 -9 -28 -77 0
-39 3 -70 8 -70 4 0 128 -29 276 -65 148 -36 273 -65 277 -65 14 0 11 100 -3
105 -7 2 -39 9 -70 15 l-58 11 0 69 0 68 33 7 c17 4 49 11 70 16 l37 10 0 54
c0 30 -3 55 -7 54 -5 -1 -120 -29 -258 -63z m35 -147 c0 -48 -1 -51 -22 -45
-13 3 -65 14 -115 23 -51 10 -93 20 -93 23 0 4 182 45 218 49 8 1 12 -15 12
-50z"/>
<path d="M4330 2363 c-43 -13 -61 -30 -71 -63 -16 -53 7 -92 77 -131 61 -35
80 -66 66 -108 -10 -31 -55 -50 -80 -35 -9 6 -23 23 -30 37 -8 16 -21 27 -33
27 -23 0 -23 -1 -5 -45 17 -40 42 -55 94 -55 51 0 89 30 98 77 10 55 -15 96
-83 135 -50 29 -58 39 -61 67 -4 38 12 61 43 61 23 0 55 -28 55 -48 0 -7 9
-12 20 -12 27 0 26 32 -2 63 -24 26 -61 39 -88 30z"/>
<path d="M3020 2323 l0 -39 93 -31 c50 -17 85 -34 77 -37 -8 -3 -50 -17 -92
-32 l-78 -27 0 -38 c0 -22 2 -39 4 -39 1 0 52 21 112 47 94 40 121 47 199 52
l90 6 0 35 0 35 -90 5 c-77 5 -104 12 -190 49 -55 23 -106 45 -112 48 -9 4
-13 -7 -13 -34z"/>
<path d="M3590 2175 c0 -178 1 -185 20 -185 19 0 20 7 20 90 l0 90 60 0 c47 0
60 3 60 15 0 12 -13 15 -60 15 l-60 0 0 63 0 62 62 0 c52 0 63 3 66 18 3 15
-6 17 -82 17 l-86 0 0 -185z"/>
<path d="M3804 2346 c-3 -7 -4 -89 -2 -182 l3 -169 88 -3 c82 -3 87 -2 87 18
0 18 -6 20 -65 20 l-65 0 0 70 0 70 61 0 c52 0 60 2 57 18 -2 13 -15 18 -61
20 l-57 3 0 57 0 57 62 0 c52 0 63 3 66 18 3 15 -6 17 -83 17 -63 0 -87 -4
-91 -14z"/>
<path d="M4030 2175 l0 -186 87 3 c74 3 88 6 91 21 3 15 -5 17 -67 17 l-71 0
0 70 0 70 66 0 c57 0 65 2 62 18 -3 14 -16 18 -66 20 l-62 3 0 54 0 55 65 0
c58 0 65 2 65 20 0 18 -7 20 -85 20 l-85 0 0 -185z"/>
<path d="M5760 2211 l0 -49 218 -52 c119 -29 230 -55 246 -59 21 -5 -21 -17
-172 -49 -110 -23 -219 -48 -243 -55 -43 -13 -44 -14 -47 -60 l-3 -47 300 0
301 0 0 31 0 31 -264 -4 c-146 -2 -264 -3 -263 -1 2 1 113 25 247 53 306 64
280 55 280 91 0 37 11 33 -283 100 l-238 54 261 3 260 2 0 30 0 30 -300 0
-300 0 0 -49z"/>
<path d="M5396 2203 c-3 -4 -6 -75 -6 -160 l0 -153 -365 0 -365 0 0 -80 0 -80
435 0 435 0 0 230 0 229 -37 6 c-21 3 -50 8 -64 10 -15 2 -29 1 -33 -2z"/>
<path d="M10280 2086 l0 -116 215 0 215 0 0 115 0 115 -35 0 -35 0 0 -80 0
-80 -60 0 -60 0 0 75 0 75 -35 0 -35 0 0 -75 0 -75 -50 0 -49 0 -3 78 -3 77
-32 3 -33 3 0 -115z"/>
<path d="M6990 2066 l0 -96 -80 0 -80 0 0 90 0 90 -40 0 -40 0 0 -90 0 -91
-67 3 -68 3 0 88 0 87 -42 0 -43 0 0 -135 0 -135 270 0 271 0 -3 138 -3 137
-37 3 -38 3 0 -95z"/>
<path d="M9800 2026 l0 -44 112 -21 c61 -12 113 -23 115 -24 1 -2 -49 -11
-112 -21 l-115 -18 0 -49 0 -49 176 0 175 0 -3 28 -3 27 -130 5 -130 5 125 18
c68 10 128 21 132 23 4 3 8 16 8 29 0 28 8 25 -154 55 -61 11 -112 23 -114 25
-3 2 55 3 129 2 l134 -2 3 28 3 27 -175 0 -176 0 0 -44z"/>
<path d="M3360 1985 l0 -75 -55 0 -54 0 -3 68 -3 67 -30 0 -30 0 -3 -68 -3
-68 -47 3 -47 3 -3 68 c-3 67 -3 67 -32 67 l-30 0 0 -105 0 -105 203 2 202 3
3 101 c3 98 2 102 -20 108 -46 12 -48 10 -48 -69z"/>
<path d="M10987 1979 c-60 -31 -77 -79 -77 -216 l0 -113 285 0 285 0 0 55 0
55 -115 0 -115 0 0 43 c0 58 -18 117 -43 146 -49 53 -150 67 -220 30z m158
-109 c9 -10 20 -40 22 -65 l6 -45 -92 0 -91 0 0 39 c0 24 8 48 21 65 17 22 29
26 68 26 35 0 53 -5 66 -20z"/>
<path d="M10327 1889 c-34 -20 -47 -64 -47 -159 l0 -90 215 0 215 0 0 40 0 40
-90 0 -90 0 0 39 c0 22 6 43 13 48 6 4 46 10 87 13 l75 5 3 39 3 39 -85 -5
c-72 -4 -90 -8 -110 -27 -20 -19 -26 -20 -33 -8 -20 34 -114 50 -156 26z m121
-81 c7 -7 12 -29 12 -50 l0 -38 -60 0 -60 0 0 31 c0 50 16 69 58 69 21 0 43
-5 50 -12z"/>
<path d="M6853 1790 c-42 -19 -48 -25 -125 -155 -25 -41 -31 -45 -66 -45 -46
0 -65 18 -60 57 2 21 12 33 39 46 34 16 36 21 35 60 -1 40 -2 42 -30 39 -80
-9 -120 -59 -121 -147 0 -97 54 -155 146 -155 63 0 105 31 151 110 61 105 108
133 158 92 32 -26 30 -70 -4 -99 -15 -13 -34 -23 -42 -23 -10 0 -14 -12 -14
-45 0 -42 2 -45 28 -45 41 0 93 32 114 71 24 45 24 133 0 179 -21 40 -90 80
-137 80 -16 0 -49 -9 -72 -20z"/>
<path d="M3020 1740 l0 -29 133 -3 132 -3 -133 -49 -133 -49 3 -39 3 -39 200
0 200 0 3 30 3 31 -143 1 -143 0 140 52 140 52 3 38 3 37 -205 0 -206 0 0 -30z"/>
<path d="M6307 1754 c-4 -4 -7 -54 -7 -111 l0 -103 -115 0 -115 0 0 100 0 100
-25 0 -25 0 0 -100 0 -100 -100 0 -100 0 0 105 0 105 -30 0 -30 0 0 -140 0
-140 300 0 300 0 0 140 c0 78 -4 140 -9 140 -5 0 -16 2 -23 5 -8 3 -17 2 -21
-1z"/>
<path d="M9825 1725 c-22 -21 -25 -33 -25 -100 l0 -75 176 0 175 0 -3 28 c-3
26 -5 27 -75 30 l-73 3 0 30 c0 36 27 49 101 49 48 0 49 1 49 30 0 30 -1 30
-54 30 -57 0 -116 -16 -116 -32 0 -5 -12 0 -26 11 -38 30 -98 28 -129 -4z
m102 -43 c7 -4 16 -22 19 -40 l7 -32 -52 0 c-49 0 -51 1 -51 28 0 15 5 33 12
40 14 14 47 16 65 4z"/>
<path d="M10090 1446 l0 -66 -50 0 -50 0 0 55 c0 52 -1 55 -24 55 -23 0 -25
-4 -28 -52 l-3 -53 -42 -3 -43 -3 0 60 c0 58 -1 61 -25 61 -25 0 -25 -1 -25
-90 l0 -90 175 0 175 0 0 90 c0 71 -3 90 -14 90 -8 0 -21 3 -30 6 -14 5 -16
-4 -16 -60z"/>
<path d="M3115 1456 c-67 -19 -95 -53 -95 -115 0 -95 56 -131 205 -131 59 0
108 5 129 14 97 40 104 176 11 220 -49 23 -186 30 -250 12z m225 -79 c18 -9
25 -21 25 -42 0 -25 -6 -32 -35 -42 -49 -17 -174 -16 -215 1 -42 18 -48 56
-13 80 28 20 200 22 238 3z"/>
<path d="M10385 1438 c-7 -20 -85 -340 -85 -350 0 -4 8 -8 19 -8 15 0 22 13
32 58 l14 57 50 0 49 0 14 -57 c11 -45 18 -58 33 -58 10 0 19 6 19 13 0 6 -20
89 -44 182 -41 164 -44 170 -70 173 -15 2 -28 -2 -31 -10z m65 -190 c0 -14 -8
-18 -35 -18 -41 0 -42 2 -18 103 l16 72 18 -70 c10 -38 19 -78 19 -87z"/>
<path d="M10574 1437 c-2 -7 -3 -89 -2 -182 3 -151 5 -170 20 -173 16 -3 18
11 20 148 l3 152 61 -148 c54 -135 63 -149 85 -149 l24 0 0 180 c0 162 -2 180
-17 183 -16 3 -18 -11 -20 -144 l-3 -148 -59 147 c-53 130 -63 147 -83 147
-13 0 -26 -6 -29 -13z"/>
<path d="M10860 1265 c0 -172 1 -186 18 -183 15 3 17 18 17 150 0 81 3 144 6
140 3 -4 32 -71 64 -149 51 -127 60 -143 81 -143 l24 0 0 185 c0 178 -1 185
-20 185 -19 0 -20 -7 -20 -147 l0 -148 -59 145 c-53 131 -61 145 -85 148 l-26
3 0 -186z"/>
<path d="M11142 1289 l3 -161 28 -24 c20 -17 40 -24 68 -24 92 0 109 36 109
230 0 133 -1 140 -20 140 -19 0 -20 -7 -20 -134 0 -73 -5 -147 -11 -165 -12
-34 -51 -51 -78 -34 -33 21 -41 56 -41 196 0 132 -1 137 -21 137 -20 0 -20 -4
-17 -161z"/>
<path d="M11420 1265 c0 -178 1 -185 20 -185 19 0 20 7 20 185 0 178 -1 185
-20 185 -19 0 -20 -7 -20 -185z"/>
<path d="M11500 1430 c0 -17 6 -20 40 -20 l40 0 0 -165 c0 -158 1 -165 20
-165 19 0 20 7 20 164 l0 165 43 3 c29 2 42 8 42 18 0 12 -19 16 -102 18 -98
3 -103 2 -103 -18z"/>
<path d="M11750 1264 c0 -171 1 -185 18 -182 15 3 17 21 20 186 2 177 2 182
-18 182 -19 0 -20 -6 -20 -186z"/>
<path d="M11862 1268 l3 -183 85 0 c73 0 85 2 88 18 3 15 -5 17 -67 17 l-71 0
0 70 0 70 65 0 c50 0 65 3 65 15 0 10 -16 15 -62 17 l-63 3 -3 58 -3 57 66 0
c58 0 65 2 65 20 0 18 -7 20 -85 20 l-85 0 2 -182z"/>
<path d="M12116 1429 c-20 -16 -26 -29 -26 -60 0 -56 13 -75 76 -111 59 -33
78 -63 68 -104 -14 -55 -93 -54 -114 1 -9 23 -29 33 -43 19 -10 -10 14 -64 36
-79 12 -8 40 -15 63 -15 53 0 91 29 100 77 10 55 -15 96 -83 135 -50 29 -58
39 -61 67 -4 38 12 61 43 61 23 0 55 -28 55 -48 0 -7 9 -12 20 -12 28 0 26 35
-5 65 -31 32 -91 34 -129 4z"/>
<path d="M6875 1423 c-36 -9 -75 -44 -101 -91 -66 -116 -71 -122 -113 -122
-45 0 -64 18 -59 57 2 21 12 33 39 46 34 16 36 21 35 60 -1 40 -2 42 -30 39
-81 -9 -121 -58 -121 -147 0 -98 54 -155 146 -155 66 0 105 30 158 122 56 97
101 120 151 80 42 -34 21 -102 -36 -116 -21 -6 -24 -12 -24 -53 l0 -46 41 6
c44 6 82 34 105 79 20 38 18 126 -4 168 -31 58 -115 91 -187 73z"/>
<path d="M5892 1351 c-100 -34 -131 -88 -132 -223 l0 -88 300 0 300 0 0 88
c-1 140 -39 198 -153 228 -76 20 -249 18 -315 -5z m309 -62 c71 -18 109 -71
109 -151 l0 -28 -245 0 -245 0 0 45 c0 87 42 130 145 146 56 8 181 2 236 -12z"/>
<path d="M9800 1180 l0 -110 25 0 c23 0 25 4 25 40 l0 40 150 0 150 0 0 30 0
30 -150 0 -150 0 0 40 c0 36 -2 40 -25 40 l-25 0 0 -110z"/>
<path d="M3020 1097 l0 -54 123 -23 c67 -12 125 -26 130 -29 4 -4 -44 -15
-105 -25 -159 -24 -148 -18 -148 -82 l0 -54 203 2 202 3 0 30 0 30 -150 5
-150 5 144 23 c79 12 148 25 152 28 13 7 11 52 -2 59 -5 4 -79 20 -162 35
l-152 28 163 1 163 1 -3 33 -3 32 -202 3 -203 2 0 -53z"/>
<path d="M6850 1010 c-113 -26 -230 -54 -260 -62 l-55 -13 -3 -62 -3 -62 38
-10 c21 -5 139 -33 263 -61 124 -29 228 -54 233 -57 4 -2 7 18 7 46 0 55 5 51
-85 69 l-40 8 0 64 0 64 40 9 c22 4 50 10 63 13 19 4 22 11 22 54 0 28 -3 50
-7 49 -5 0 -100 -22 -213 -49z m0 -140 c0 -22 -3 -40 -7 -40 -23 -1 -203 36
-203 41 0 6 145 35 188 38 19 1 22 -4 22 -39z"/>
<path d="M9823 926 c-24 -21 -28 -32 -28 -74 0 -62 20 -87 88 -107 88 -26 201
-13 245 27 24 23 30 75 12 108 -7 13 -7 21 0 25 5 3 10 15 10 26 0 18 -8 19
-100 19 l-100 0 0 -55 c0 -52 1 -55 25 -55 20 0 25 5 25 25 0 21 5 25 31 25
65 0 92 -43 47 -74 -25 -18 -160 -22 -201 -7 -42 16 -45 64 -6 76 13 4 19 16
19 36 0 37 -27 39 -67 5z"/>
<path d="M5760 890 l0 -30 243 0 242 0 -243 -97 -243 -97 3 -40 3 -41 298 -3
297 -2 0 36 0 37 -250 -5 c-138 -3 -249 -4 -248 -2 2 1 390 155 481 189 12 5
17 18 17 46 l0 39 -300 0 -300 0 0 -30z"/>
<path d="M9800 655 c0 -24 0 -24 113 -27 l112 -3 -110 -41 -110 -41 -3 -36 -3
-37 176 0 176 0 -3 28 -3 27 -125 -4 c-69 -2 -122 0 -119 3 3 3 59 25 125 49
117 41 119 43 122 75 l3 32 -175 0 -176 0 0 -25z"/>
<path d="M5766 463 c-3 -4 -6 -19 -6 -35 l0 -28 300 0 300 0 0 35 0 36 -294
-1 c-162 -1 -297 -4 -300 -7z"/>
<path d="M9865 405 c-22 -8 -41 -15 -42 -15 -1 0 -9 -13 -18 -30 -30 -58 -13
-115 45 -145 72 -37 230 -26 276 21 34 33 34 105 0 139 -44 44 -178 60 -261
30z m207 -61 c25 -7 33 -43 14 -62 -18 -18 -132 -29 -191 -18 -43 8 -65 41
-42 64 28 28 148 36 219 16z"/>
<path d="M10090 121 l0 -61 -145 0 -145 0 0 -30 0 -30 175 0 176 0 -3 88 c-3
87 -3 87 -30 90 -28 3 -28 3 -28 -57z"/>
</g>
</svg>
