<?xml version="1.0" standalone="no"?>
<!DOCTYPE svg PUBLIC "-//W3C//DTD SVG 20010904//EN"
 "http://www.w3.org/TR/2001/REC-SVG-20010904/DTD/svg10.dtd">
<svg version="1.0" xmlns="http://www.w3.org/2000/svg"
 width="1280.000000pt" height="905.000000pt" viewBox="0 0 1280.000000 905.000000"
 preserveAspectRatio="xMidYMid meet">
<metadata>
Created by potrace 1.15, written by Peter Selinger 2001-2017
</metadata>
<g transform="translate(0.000000,905.000000) scale(0.100000,-0.100000)"
fill="#000000" stroke="none">
<path d="M114 9038 c-5 -8 -2 -9 9 -5 22 8 32 -10 16 -29 -10 -12 -9 -13 4 -8
11 4 20 -5 32 -30 9 -19 14 -39 11 -45 -4 -5 2 -14 11 -20 10 -5 25 -26 32
-48 8 -21 40 -93 72 -160 61 -126 189 -428 189 -443 0 -5 6 -24 14 -42 35 -81
45 -108 71 -183 14 -44 30 -87 35 -96 4 -8 18 -51 30 -95 12 -43 25 -83 29
-89 4 -5 16 -39 25 -75 27 -97 75 -261 87 -295 6 -16 22 -64 35 -105 14 -41
49 -124 79 -185 52 -106 85 -207 85 -257 0 -13 4 -28 8 -34 15 -16 35 -96 40
-159 15 -174 -3 -370 -53 -550 -20 -75 -27 -105 -54 -230 -11 -55 -27 -125
-36 -155 -8 -30 -35 -136 -60 -235 -110 -438 -143 -546 -278 -935 -59 -168
-72 -201 -140 -361 -77 -179 -94 -268 -72 -372 25 -122 91 -232 208 -351 16
-16 46 -53 68 -82 21 -29 43 -56 49 -59 6 -4 49 -65 96 -135 84 -129 138 -229
189 -350 75 -180 207 -415 283 -508 40 -48 122 -180 122 -198 1 -5 31 -54 68
-108 48 -71 78 -105 106 -120 22 -12 52 -35 68 -53 16 -18 67 -57 112 -87 46
-31 126 -95 177 -144 147 -139 190 -175 360 -303 88 -65 197 -151 242 -190 95
-83 155 -115 287 -157 78 -24 120 -46 235 -122 198 -131 219 -140 287 -131 92
12 158 70 184 160 19 63 9 136 -33 236 -13 33 -31 94 -39 135 -9 49 -32 112
-67 180 -50 101 -56 108 -152 188 -55 46 -121 103 -146 128 l-47 46 -4 102
c-3 95 -6 105 -42 171 -22 39 -65 122 -96 185 -32 63 -89 163 -127 221 -39 58
-78 130 -88 160 -25 77 -100 250 -151 346 l-43 81 20 169 c10 92 19 182 19
199 l0 31 383 -4 c311 -4 385 -2 399 8 10 9 34 75 58 164 39 140 50 174 50
147 0 -6 13 -95 30 -199 16 -103 32 -206 35 -228 3 -22 7 -49 10 -60 3 -16 93
-583 135 -855 106 -682 110 -705 131 -722 27 -23 42 -23 67 0 20 17 27 63 47
337 3 39 10 117 15 175 5 58 14 168 20 245 6 77 17 214 25 305 8 91 19 226 25
300 6 74 17 209 25 300 8 91 19 228 25 305 6 77 15 190 21 250 11 131 15 176
29 360 6 77 15 184 21 238 5 54 9 123 10 155 1 92 15 33 28 -113 9 -110 27
-309 45 -495 3 -25 10 -97 16 -160 6 -63 17 -178 25 -255 8 -77 22 -225 31
-330 18 -208 23 -230 52 -237 47 -13 77 19 160 165 44 78 86 154 93 169 l12
28 814 0 813 0 0 58 0 57 -83 66 c-45 37 -185 142 -312 234 -279 203 -357 268
-466 383 -131 138 -190 253 -217 421 -26 153 6 280 100 406 94 124 248 214
427 251 109 22 274 15 381 -16 175 -50 332 -168 414 -312 21 -38 42 -68 45
-68 4 0 24 30 46 67 77 132 202 237 346 291 363 135 781 -1 931 -305 l43 -86
0 -136 c0 -116 -4 -145 -23 -201 -72 -202 -206 -345 -596 -633 -121 -89 -275
-207 -344 -262 l-125 -100 0 -55 0 -55 791 -5 792 -5 86 -155 c94 -169 113
-196 150 -203 43 -8 62 16 69 91 3 37 12 132 20 212 8 80 19 199 25 265 6 66
15 158 20 205 5 47 14 137 20 200 5 63 16 185 25 271 8 86 17 187 21 225 16
187 19 190 32 34 20 -221 32 -359 52 -620 6 -69 17 -201 25 -295 8 -93 19
-231 25 -305 6 -74 17 -209 25 -300 8 -91 19 -226 25 -300 6 -74 15 -187 20
-250 5 -63 12 -144 15 -180 3 -36 9 -114 15 -175 5 -60 14 -177 20 -260 6 -82
13 -160 16 -172 9 -44 82 -55 103 -15 5 9 11 37 14 62 3 25 20 133 37 240 17
107 36 222 41 255 5 33 15 103 23 155 8 52 18 113 21 135 3 22 7 49 10 60 3
16 47 291 90 570 5 31 19 116 35 215 5 30 19 120 31 200 12 80 25 148 29 152
3 5 23 -58 45 -138 31 -118 43 -149 62 -161 21 -14 72 -15 408 -11 l385 5 0
-31 c0 -17 9 -107 19 -199 l20 -169 -43 -81 c-51 -96 -126 -269 -151 -346 -10
-30 -49 -102 -88 -160 -38 -58 -95 -158 -127 -221 -31 -63 -74 -146 -96 -185
-36 -66 -39 -76 -42 -171 l-4 -102 -47 -46 c-25 -25 -91 -82 -146 -128 -96
-80 -102 -87 -152 -188 -35 -68 -58 -131 -67 -180 -8 -41 -26 -102 -39 -135
-42 -100 -52 -173 -33 -236 26 -90 92 -148 184 -160 68 -9 89 0 287 131 115
76 157 98 235 122 132 42 192 74 287 157 45 39 154 125 242 190 170 128 213
164 360 303 51 49 131 113 177 144 45 30 96 69 112 87 16 18 46 41 68 53 28
15 58 49 106 120 37 54 67 103 68 108 0 18 82 150 122 198 76 93 208 328 283
508 51 121 105 221 189 350 47 70 90 131 96 135 6 3 28 30 49 59 22 29 52 66
68 82 117 119 183 229 208 351 22 104 5 193 -72 372 -68 160 -81 193 -140 361
-135 389 -168 497 -278 935 -25 99 -52 205 -60 235 -9 30 -25 100 -36 155 -27
125 -34 155 -54 230 -50 180 -68 376 -53 550 5 63 25 143 40 160 4 5 8 20 8
33 0 50 33 151 85 257 30 61 65 144 79 185 13 41 29 89 35 105 12 34 60 198
87 295 9 36 21 70 25 75 4 6 17 46 29 89 12 44 26 87 30 95 5 9 21 52 35 96
26 75 36 102 71 183 8 18 14 37 14 42 0 15 128 317 189 443 32 67 64 139 72
160 7 22 22 43 32 48 9 6 15 15 11 20 -3 6 2 26 11 45 12 25 21 34 32 30 13
-5 14 -4 4 8 -16 19 -6 37 16 29 11 -4 14 -3 9 5 -5 9 -257 12 -1019 12
l-1012 0 -48 -232 c-102 -491 -159 -712 -284 -1108 -30 -96 -78 -258 -105
-360 -68 -257 -80 -298 -153 -520 -116 -355 -194 -562 -245 -650 -130 -226
-151 -469 -79 -910 51 -314 148 -575 284 -765 76 -106 178 -333 238 -530 33
-106 47 -196 49 -311 l2 -119 -359 0 -358 0 -69 255 c-38 140 -77 263 -85 273
-9 9 -26 17 -39 17 -44 0 -50 -15 -80 -210 -9 -56 -25 -158 -34 -210 -5 -30
-35 -217 -65 -415 -31 -198 -58 -369 -60 -380 -3 -11 -7 -36 -9 -55 -31 -210
-92 -580 -96 -580 -6 0 -12 67 -40 410 -5 63 -14 171 -20 240 -6 69 -13 154
-16 190 -2 36 -9 115 -14 175 -14 170 -30 353 -35 425 -3 36 -9 115 -15 175
-5 61 -14 173 -20 250 -6 77 -17 214 -25 305 -8 91 -19 224 -25 295 -45 563
-57 684 -71 701 -18 22 -66 17 -83 -8 -7 -13 -17 -61 -20 -108 -4 -47 -13
-146 -21 -220 -7 -74 -19 -191 -25 -260 -6 -69 -15 -165 -20 -215 -5 -49 -12
-119 -15 -155 -3 -36 -10 -108 -15 -160 -8 -82 -22 -229 -35 -365 -9 -98 -27
-278 -35 -365 -6 -52 -13 -131 -16 -175 -4 -44 -7 -81 -9 -83 -1 -1 -30 48
-65 110 -34 62 -66 118 -71 123 -7 6 -275 12 -747 15 l-737 5 318 238 c418
313 550 440 646 619 60 110 81 200 81 339 0 183 -41 286 -167 419 -116 124
-256 199 -446 241 -120 27 -320 22 -442 -10 -149 -39 -310 -133 -398 -230
l-35 -39 -59 57 c-336 325 -931 322 -1258 -7 -180 -182 -230 -430 -139 -684
83 -228 245 -400 658 -697 71 -51 177 -129 234 -172 l105 -79 -750 0 c-700 0
-752 -1 -772 -17 -11 -10 -48 -67 -80 -127 l-59 -109 -6 44 c-3 24 -8 69 -11
99 -3 30 -12 127 -20 215 -8 88 -20 212 -25 275 -6 63 -15 153 -20 200 -5 47
-14 139 -20 205 -6 66 -15 163 -20 215 -5 52 -12 124 -15 160 -3 36 -10 106
-15 155 -5 50 -14 146 -20 215 -6 69 -15 163 -21 210 -5 47 -9 90 -9 97 0 19
-30 43 -55 43 -52 0 -51 4 -85 -410 -5 -63 -16 -194 -24 -290 -9 -96 -20 -238
-26 -315 -6 -77 -17 -212 -25 -300 -7 -88 -19 -223 -25 -300 -6 -77 -17 -214
-25 -305 -8 -91 -19 -226 -25 -300 -6 -74 -15 -184 -20 -245 -5 -60 -12 -139
-14 -175 -18 -234 -47 -554 -50 -558 -2 -1 -9 32 -15 75 -18 113 -72 455 -91
575 -6 35 -12 77 -15 93 -2 17 -23 147 -46 290 -22 143 -44 285 -49 315 -5 30
-16 100 -25 155 -8 55 -20 129 -25 165 -29 190 -33 200 -81 200 -19 0 -33 -8
-42 -22 -8 -13 -45 -137 -82 -276 l-69 -252 -350 2 -350 3 2 119 c2 115 16
205 49 311 60 197 162 424 238 530 136 190 233 451 284 765 72 441 51 684 -79
910 -51 88 -129 295 -245 650 -73 222 -85 263 -153 520 -27 102 -75 264 -105
360 -125 396 -182 617 -284 1108 l-48 232 -1012 0 c-762 0 -1014 -3 -1019 -12z"/>
<path d="M2790 2380 c6 -11 13 -20 16 -20 2 0 0 9 -6 20 -6 11 -13 20 -16 20
-2 0 0 -9 6 -20z"/>
<path d="M10000 2380 c-6 -11 -8 -20 -6 -20 3 0 10 9 16 20 6 11 8 20 6 20 -3
0 -10 -9 -16 -20z"/>
</g>
</svg>
